<?xml version="1.0" encoding="utf-8"?>
<!-- Generator: Adobe Illustrator 16.0.0, SVG Export Plug-In . SVG Version: 6.00 Build 0)  -->
<!DOCTYPE svg PUBLIC "-//W3C//DTD SVG 1.1//EN" "http://www.w3.org/Graphics/SVG/1.1/DTD/svg11.dtd">
<svg version="1.1" id="kettle" xmlns="http://www.w3.org/2000/svg" xmlns:xlink="http://www.w3.org/1999/xlink" x="0px" y="0px"
	 width="206px" height="233px" viewBox="0 0 206 233" enable-background="new 0 0 206 233" xml:space="preserve">
<g>
	<defs>
		<rect id="SVGID_1_" x="-48" y="-33" width="300" height="300"/>
	</defs>
	<clipPath id="SVGID_2_">
		<use xlink:href="#SVGID_1_"  overflow="visible"/>
	</clipPath>
	<path clip-path="url(#SVGID_2_)" fill="#FF6F4D" d="M57.249,197h130v-55c0-19.502-15.498-35-35-35h-60c-19.5,0-35,15.498-35,35V197
		z"/>
	<path clip-path="url(#SVGID_2_)" fill="#FF0600" d="M152.249,107h-17.002c10,6.001,17.002,17.5,17.002,30v45
		c0,5.498-4.502,10-10,10h-85v5h130v-55C187.249,122.498,171.751,107,152.249,107"/>
	<path clip-path="url(#SVGID_2_)" fill="#B0C4D8" d="M187.249,207h-130v5c0,2.998,2,5,5,5h120c2.998,0,5-2.002,5-5V207z"/>
	<polygon clip-path="url(#SVGID_2_)" fill="#FF7B4D" points="20.75,132 47.249,182 47.249,144.5 30.75,132 	"/>
	<polygon clip-path="url(#SVGID_2_)" fill="#FF0000" points="21.25,132 20.75,132 47.251,182 47.251,169.5 	"/>
	<path clip-path="url(#SVGID_2_)" fill="#FF7623" d="M147.249,92c0-3-2.002-5-5-5h-40c-3,0-5,2-5,5v5h50V92z"/>
	<path clip-path="url(#SVGID_2_)" fill="#014463" d="M142.249,77h-10c0-3-2.002-5-5-5h-10c-2.998,0-5,2-5,5h-10
		c-8.501,0-15,6.499-15,15v10c0,3,2,5,5,5h60c2.998,0,5-2,5-5V92C157.249,83.499,150.75,77,142.249,77 M147.249,97h-50v-5
		c0-3,2-5,5-5h40c2.998,0,5,2,5,5V97z"/>
	<path clip-path="url(#SVGID_2_)" fill="#6298FF" d="M152.249,207c0,2.998-2.002,5-5,5h-90c0,2.998,2,5,5,5h90h30
		c2.998,0,5-2.002,5-5v-5H152.249z"/>
	<path clip-path="url(#SVGID_2_)" fill="#FF0000" d="M147.249,97h-20V87h15c2.998,0,5,2,5,5V97z"/>
	<path clip-path="url(#SVGID_2_)" fill="#FFFFFF" d="M80.75,123.499c-0.5-1.499-2-1.997-3-1.499c-5.999,2.5-10,8.501-10.5,15v2.5
		c0,1.499,1.001,2.5,2.5,2.5c1.501,0,2.5-1.001,2.5-2.5V137c0-4.502,3-8.999,7.002-10.498
		C80.75,126.502,81.25,124.998,80.75,123.499"/>
	<path clip-path="url(#SVGID_2_)" fill="#FFFFFF" d="M69.749,162L69.749,162c-1.499,0-2.5-1.001-2.5-2.5v-10
		c0-1.499,1.001-2.5,2.5-2.5s2.5,1.001,2.5,2.5v10C72.249,160.999,71.248,162,69.749,162"/>
	<path clip-path="url(#SVGID_2_)" fill="#FFFFFF" d="M69.749,167c1.379,0,2.5,1.118,2.5,2.5s-1.121,2.5-2.5,2.5s-2.5-1.118-2.5-2.5
		S68.37,167,69.749,167"/>
	<rect x="92.249" y="17" clip-path="url(#SVGID_2_)" fill="#D98B37" width="60" height="10"/>
	<rect x="92.249" y="22" clip-path="url(#SVGID_2_)" fill="#804B00" width="60" height="5"/>
	<path clip-path="url(#SVGID_2_)" fill="#013863" d="M177.249,104.5V57V32c0-8.501-6.499-15-15-15v-5c0-3-2.002-5-5-5h-70
		c-3,0-5,2-5,5v5c-8.501,0-15,6.499-15,15v25v47.5c-9.5,6.499-16.499,16.499-18.999,27.998l-13-9.497c-1.001-0.503-2-1.001-3-1.001
		h-20c-2,0-3.501,1.001-4.5,2.5c-1.001,1.499-1.001,3.501,0,5l39.5,73.999V212c0,8.501,6.499,15,15,15h120c8.501,0,15-6.499,15-15
		v-70C197.249,126.502,189.251,112.5,177.249,104.5 M47.249,182L20.75,132h10l16.499,12.5V182z M92.249,17h60v10h-60V17z M77.249,57
		V32c0-3,2-5,5-5v5c0,3,2,5,5,5h70c2.998,0,5-2,5-5v-5c2.998,0,5,2,5,5v25v42.5c-4.502-1.499-9.502-2.5-15-2.5h-60
		c-5.5,0-10.5,1.001-15,2.5V57z M187.249,212c0,2.998-2.002,5-5,5h-120c-3,0-5-2.002-5-5v-5h130V212z M187.249,197h-130v-55
		c0-19.502,15.5-35,35-35h60c19.502,0,35,15.498,35,35V197z"/>
	<g clip-path="url(#SVGID_2_)">
		<g>
			<g>
				<path fill="#202020" d="M24.295,114.359c0.001,0.163,0.001,0.222-0.144,0.441c-0.407,0.755-1.128,1.736-2.098,2.12
					c-0.958,0.41-2.275,0.208-3.711-1.796c-0.057-0.073-0.238-0.427-0.268-0.61c-0.04-2.177,0.039-4.372,0.51-6.72
					c0.154-0.605,0.305-1.199,0.479-1.809c0.14-0.361,0.288-0.72,0.444-1.075c0.174-0.323,0.356-0.64,0.542-0.956
					c0.772-1.193,1.624-2.053,2.367-2.807c1.508-1.487,2.651-2.624,3.115-3.754c0.15-0.277,0.208-0.567,0.296-0.858
					c0.024-0.15,0.053-0.304,0.085-0.449l0.013-0.055l-0.001-0.004l-0.001-0.001c0.001-0.004,0.004,0.01-0.091-0.05
					c-0.394-0.257-1.226-0.583-2.183-0.938c-0.961-0.372-2.106-0.768-3.364-1.611c-0.622-0.434-1.259-0.956-1.807-1.666
					c-0.293-0.32-0.501-0.727-0.718-1.12c-0.233-0.396-0.378-0.8-0.49-1.213c-0.119-0.409-0.254-0.839-0.27-1.213l-0.057-0.614
					c-0.018-0.249-0.028-0.498-0.032-0.747c0.02-0.998,0.328-1.979,0.865-2.823c0.138-0.208,0.28-0.413,0.434-0.613
					c0.169-0.206,0.351-0.407,0.482-0.549c0.283-0.282,0.569-0.541,0.844-0.758c0.552-0.439,1.08-0.78,1.587-1.088
					c1.007-0.599,1.941-1.064,2.782-1.514c0.821-0.437,1.599-0.893,1.979-1.23c0.094-0.08,0.166-0.15,0.186-0.18
					c0.005-0.007,0.023-0.019,0.021-0.021c0.018,0.013-0.061-0.037,0.081,0.058c0.231,0.138,0.331,0.21,0.476,0.278
					c0.537,0.256,0.515,0.042-0.136,0.207l-0.531,0.135l-0.064-0.477c-0.185-1.38-0.484-2.613-1.102-3.617
					c-0.601-1.018-1.599-1.927-2.959-3.076c-1.329-1.126-3.02-2.623-4.169-4.636c-1.152-1.997-1.705-4.203-1.905-6.253
					c0.011,0.004-0.044-0.218-0.021-0.58c0.013-0.365,0.031-0.897,0.054-1.563c0-0.67,0.106-1.447,0.24-2.316
					c0.065-0.434,0.133-0.892,0.204-1.371c0.064-0.47,0.277-1.102,0.432-1.665c0.757-2.178,2.03-4.089,3.019-5.814
					c0.525-0.877,0.924-1.725,1.298-2.583c0.312-0.856,0.588-1.716,0.705-2.571c0.378-2.921-0.221-5.042-0.365-6.258
					c-0.175-1.243-0.042-1.688,0.38-1.501c0.206,0.096,0.477,0.354,0.803,0.754c0.325,0.4,0.723,0.929,1.062,1.632
					c0.761,1.35,1.458,3.367,1.554,5.757c0.009-0.123,0.073,0.141,0.037,0.696c-0.015,0.28-0.033,0.633-0.055,1.046
					c-0.052,0.408-0.133,0.874-0.218,1.392c-0.371,2.054-1.557,4.621-2.391,6.742c-0.404,1.061-0.689,2.101-0.764,2.865
					c-0.01,1.032-0.083,2.044-0.031,2.863c0.087,0.811,0.076,1.524,0.189,1.953c0.092,0.437,0.144,0.687,0.144,0.687
					c0.351,2.736,1.564,4.112,4.206,6.338c1.284,1.102,2.866,2.545,3.994,4.47c1.146,1.939,1.586,4.056,1.839,6.047l-0.08-0.473
					c0.306,1.067,0.169,2.545-0.36,3.563c-0.509,1.038-1.159,1.678-1.725,2.174c-1.155,0.971-2.16,1.479-3.101,2
					c-0.932,0.497-1.795,0.934-2.514,1.364c-0.352,0.213-0.666,0.424-0.899,0.61c-0.12,0.093-0.202,0.175-0.278,0.245
					c-0.035,0.045-0.023,0.028-0.014,0.015l0-0.001l0.001,0l0.01,0.001c0.004-0.011,0.009,0.094,0.01,0.136
					c-0.015,0.135,0.042,0.176,0.056,0.25c0.092,0.265,0.133,0.366,0.556,0.677c0.407,0.292,1.165,0.607,2.077,0.944
					c0.917,0.36,2.002,0.696,3.319,1.502c0.333,0.206,0.754,0.497,1.107,0.853c0.182,0.172,0.359,0.349,0.529,0.53
					c0.15,0.196,0.276,0.411,0.416,0.615c0.132,0.208,0.281,0.409,0.4,0.625l0.269,0.69c0.077,0.232,0.208,0.455,0.24,0.696
					l-0.009,0.744c-0.015,0.472,0.008,1.045-0.037,1.435l-0.192,1.033c-0.175,0.673-0.372,1.368-0.677,1.988
					c-0.564,1.272-1.351,2.384-2.137,3.273c-0.787,0.901-1.572,1.649-2.24,2.323c-0.669,0.669-1.217,1.271-1.536,1.771
					c-0.062,0.121-0.131,0.239-0.203,0.354c-0.036,0.11-0.079,0.215-0.131,0.318l-0.287,1.106
					C24.348,110.677,24.254,112.522,24.295,114.359z"/>
			</g>
		</g>
	</g>
</g>
</svg>
