<?xml version="1.0" encoding="utf-8"?>
<!-- Generator: Adobe Illustrator 16.0.0, SVG Export Plug-In . SVG Version: 6.00 Build 0)  -->
<!DOCTYPE svg PUBLIC "-//W3C//DTD SVG 1.1//EN" "http://www.w3.org/Graphics/SVG/1.1/DTD/svg11.dtd">
<svg version="1.1" id="mixer" xmlns="http://www.w3.org/2000/svg" xmlns:xlink="http://www.w3.org/1999/xlink" x="0px" y="0px"
	 width="204px" height="214px" viewBox="0 0 204 214" enable-background="new 0 0 204 214" xml:space="preserve">
<g id="parts_group">
	<path fill="#FF6E4D" d="M189.364,52.455c0-17.727-14.09-31.818-31.819-31.818H21.182c-2.728,0-4.546,1.818-4.546,4.546v72.727
		c0,2.728,1.818,4.546,4.546,4.546h55.001c4.09,0,8.181-1.818,10.453-5.001l7.273-9.091c4.545-5.453,10.911-8.636,17.729-8.636
		h59.543c10.001,0,18.183-8.181,18.183-18.182V52.455z M176.185,66.546c-2.272,2.728-5.913,4.09-9.548,4.09H103
		c-7.726,0-13.637-5.908-13.637-13.636V43.364c0-7.726,5.911-13.636,13.637-13.636h50c14.999,0,27.272,12.273,27.272,27.272
		C180.272,60.638,178.91,64.273,176.185,66.546"/>
	<path fill="#DE333F" d="M177.543,27.909c4.545,5.456,7.275,12.274,7.275,20v13.636c0,7.728-5.908,13.637-13.637,13.637h-64.094
		c-6.815,0-13.634,3.182-17.725,8.636c0,0-4.546,9.545-13.636,9.545H21.182c-2.728,0-4.546,1.818-4.546,4.546
		s1.818,4.546,4.546,4.546h55.001c4.09,0,8.181-1.818,10.453-5.001l7.273-9.091c4.09-5.453,10.906-8.636,17.725-8.636h59.548
		c10.001,0,18.183-8.181,18.183-18.182v-9.091C189.364,42.456,184.818,33.818,177.543,27.909"/>
	<path fill="#F26A56" d="M157.545,20.636H21.182c-2.728,0-4.546,1.818-4.546,4.546v59.09h4.546v-59.09h140.909
		c7.728,0,14.547,2.727,20.002,7.273C176.18,25.182,167.546,20.636,157.545,20.636"/>
	<path fill="#014463" d="M153,29.728h-50c-7.726,0-13.637,5.91-13.637,13.636V57c0,7.728,5.911,13.636,13.637,13.636h63.637
		c3.635,0,7.275-1.363,9.548-4.09c2.726-2.728,4.088-5.908,4.088-9.546C180.272,42.001,167.999,29.728,153,29.728 M169.818,60.183
		L169.818,60.183c-0.909,0.91-1.819,1.363-3.182,1.363H103c-2.726,0-4.546-1.818-4.546-4.545V43.364c0-2.726,1.82-4.546,4.546-4.546
		h50c10.001,0,18.182,8.184,18.182,18.182C171.182,58.365,170.729,59.272,169.818,60.183"/>
	<path fill="#003F63" d="M157.545,11.545H48.454C48.454,8.818,46.637,7,43.909,7h-9.092c-2.727,0-4.545,1.818-4.545,4.545h-9.091
		c-7.728,0-13.637,5.909-13.637,13.637v72.727c0,7.729,5.909,13.636,13.637,13.636h9.091c0,2.727,1.818,4.546,4.545,4.546h4.546
		c2.728,0,4.546,1.82,4.546,4.545v22.729h-4.546c-7.728,0-13.636,5.907-13.636,13.636v27.272c0,12.727,10,22.728,22.727,22.728
		s22.728-10.001,22.728-22.728V157c0-7.729-5.908-13.636-13.637-13.636H53v-22.729c0-2.725,1.817-4.545,4.545-4.545h4.546
		c2.728,0,4.545-1.819,4.545-4.546h9.547c6.817,0,13.181-3.183,17.727-8.636l7.273-9.091c2.728-3.183,6.362-5,10.456-5h59.543
		c15,0,27.273-12.274,27.273-27.273v-9.091C198.455,29.728,180.272,11.545,157.545,11.545 M43.909,196.999
		c-5.455-1.815-9.092-6.817-9.092-12.727V157c0-2.725,1.818-4.545,4.546-4.545h4.546V196.999z M57.545,152.455
		c2.729,0,4.546,1.82,4.546,4.545v27.272c0,5.909-3.636,10.911-9.091,12.727v-44.544H57.545z M189.364,61.545
		c0,10.001-8.182,18.182-18.183,18.182h-59.543c-6.818,0-13.185,3.183-17.729,8.636l-7.273,9.091
		c-2.728,3.183-6.363,5.001-10.453,5.001H21.182c-2.728,0-4.546-1.818-4.546-4.546V84.272h18.182c2.729,0,4.546-1.817,4.546-4.545
		c0-2.728-1.817-4.545-4.546-4.545H16.636v-9.091h18.182c2.729,0,4.546-1.817,4.546-4.545c0-2.728-1.817-4.545-4.546-4.545H16.636
		v-9.091h18.182c2.729,0,4.546-1.818,4.546-4.545c0-2.728-1.817-4.546-4.546-4.546H16.636V25.182c0-2.728,1.818-4.546,4.546-4.546
		h136.363c17.729,0,31.819,14.091,31.819,31.818V61.545z"/>
</g>
</svg>
