<?xml version="1.0" encoding="utf-8"?>
<!-- Generator: Adobe Illustrator 16.0.0, SVG Export Plug-In . SVG Version: 6.00 Build 0)  -->
<!DOCTYPE svg PUBLIC "-//W3C//DTD SVG 1.1//EN" "http://www.w3.org/Graphics/SVG/1.1/DTD/svg11.dtd">
<svg version="1.1" id="steaming_pot" xmlns="http://www.w3.org/2000/svg" xmlns:xlink="http://www.w3.org/1999/xlink" x="0px"
	 y="0px" width="326px" height="312px" viewBox="0 0 326 312" enable-background="new 0 0 326 312" xml:space="preserve">
<g>
	<path fill="#A0A5A8" d="M62.825,149.09v128.403c0,7.844,6.419,14.267,14.267,14.267h171.205c7.844,0,14.268-6.423,14.268-14.267
		V149.09H62.825z"/>
	<path fill="#C4C4C4" d="M261.847,134.823c-3.567-16.406-17.834-28.534-34.95-28.534H98.493c-17.12,0-31.387,12.128-34.954,28.534
		H261.847z"/>
	<path fill="#8BB1D1" d="M226.896,106.289H189.09c14.268,0,26.396,8.562,32.102,20.687c2.139,4.995,7.133,7.848,12.838,7.848h27.824
		C258.287,118.417,244.02,106.289,226.896,106.289"/>
	<path fill="#014463" d="M301.081,134.823h-24.968c-3.566-24.253-24.25-42.801-49.217-42.801h-15.695l-2.856-12.128
		c-2.849-9.986-11.411-16.406-21.4-16.406h-34.95c-9.986,0-18.548,6.419-20.687,16.406l-2.856,12.128H98.493
		c-24.967,0-45.654,18.548-49.221,42.801H24.305c-9.99,0-18.548,8.558-18.548,18.548c0,2.853,0.714,5.708,2.139,8.558l9.275,17.834
		c3.567,7.133,10.701,12.128,19.259,12.128h12.128v85.603c0,15.695,12.839,28.534,28.534,28.534h171.205
		c15.695,0,28.534-12.839,28.534-28.534v-85.603h12.839c7.844,0,15.695-4.277,19.262-12.128l9.272-18.545
		c1.428-2.855,2.139-5.708,2.139-8.562C319.632,143.381,311.07,134.823,301.081,134.823 M48.558,177.624H35.716
		c-2.853,0-4.992-1.429-6.42-4.277l-9.272-17.837v-2.139c0-2.142,2.139-4.281,4.281-4.281h24.253V177.624z M145.575,83.46
		c0.71-2.853,3.567-5.706,7.133-5.706h34.954c3.566,0,6.416,2.139,7.133,5.706l2.139,8.562h-52.787L145.575,83.46z M98.493,106.289
		h128.404c17.116,0,31.383,12.125,34.95,28.534H63.539C67.106,118.414,81.373,106.289,98.493,106.289 M262.564,184.757v92.736
		c0,7.844-6.424,14.267-14.268,14.267H77.092c-7.847,0-14.267-6.423-14.267-14.267v-92.736V149.09h199.739V184.757z
		 M304.647,155.509l-9.272,18.547c-1.428,2.139-3.566,4.277-6.416,4.277h-12.128v-28.53h24.25c2.146,0,4.284,2.139,4.284,4.277
		C305.365,154.081,305.365,154.795,304.647,155.509"/>
	<path fill="#ECF0F9" d="M105.626,234.692c3.937,0,7.134,3.197,7.134,7.133c0,3.937-3.197,7.134-7.134,7.134
		c-3.936,0-7.133-3.197-7.133-7.134C98.493,237.89,101.69,234.692,105.626,234.692"/>
	<path fill="#ECF0F9" d="M105.626,227.559c-4.28,0-7.133-2.856-7.133-7.134v-42.801c0-4.277,2.853-7.134,7.133-7.134
		c4.281,0,7.134,2.856,7.134,7.134v42.801C112.76,224.702,109.907,227.559,105.626,227.559"/>
	<path fill="#8BB1D1" d="M219.763,163.356v107.003c0,7.845-6.423,14.268-14.267,14.268H91.359c-7.848,0-14.268-6.423-14.268-14.268
		V163.356c0-7.847-6.419-14.267-14.267-14.267v128.403c0,7.844,6.419,14.267,14.267,14.267h142.671h28.534
		c7.844,0,14.268-6.423,14.268-14.267V149.09h-28.535C226.186,149.09,219.763,155.509,219.763,163.356"/>
	<path fill="#8BB1D1" d="M112.046,106.289H98.493c-17.12,0-31.387,12.128-34.954,28.534h3.567c5.706,0,10.7-2.853,12.839-7.848
		C85.65,114.85,97.778,106.289,112.046,106.289"/>
	<path fill="#014463" d="M255.431,77.754c-2.139,0-4.277-0.714-5.706-2.853c-2.855-2.853-2.139-7.848,0.711-9.986
		c3.566-2.142,4.995-4.995,4.995-8.562c0-3.566-1.429-6.419-4.277-8.562c-2.856-2.853-3.567-7.133-0.718-9.986
		c2.856-2.853,7.134-3.566,9.99-0.714c5.705,4.995,9.271,11.415,9.271,19.262c0,7.848-3.566,14.267-9.989,19.973
		C258.997,77.041,256.858,77.754,255.431,77.754"/>
	<path fill="#014463" d="M255.431,13.553c3.936,0,7.134,3.197,7.134,7.133c0,3.939-3.198,7.133-7.134,7.133
		c-3.937,0-7.134-3.194-7.134-7.133C248.297,16.75,251.494,13.553,255.431,13.553"/>
	<path fill="#014463" d="M226.896,77.754c-2.139,0-4.277-0.714-5.705-2.853c-2.856-2.853-2.139-7.848,0.71-9.986
		c3.567-2.142,4.995-4.995,4.995-8.562c0-3.566-1.428-6.419-4.277-8.562c-6.423-5.705-9.99-12.125-9.99-19.973
		c0-7.847,3.567-14.267,9.99-19.972c2.85-2.856,7.844-2.142,9.982,0.71c2.139,2.856,2.139,7.848-0.711,9.99
		c-3.566,2.853-4.994,5.706-4.994,9.272c0,3.567,1.428,6.42,4.277,8.562c6.423,5.706,9.989,12.125,9.989,19.972
		c0,7.848-3.566,14.267-9.989,19.973C230.463,77.041,228.324,77.754,226.896,77.754"/>
</g>
</svg>
