<?xml version="1.0" encoding="utf-8"?>
<!-- Generator: Adobe Illustrator 16.0.0, SVG Export Plug-In . SVG Version: 6.00 Build 0)  -->
<!DOCTYPE svg PUBLIC "-//W3C//DTD SVG 1.1//EN" "http://www.w3.org/Graphics/SVG/1.1/DTD/svg11.dtd">
<svg version="1.1" id="apple" xmlns="http://www.w3.org/2000/svg" xmlns:xlink="http://www.w3.org/1999/xlink" x="0px" y="0px"
	 width="209px" height="206px" viewBox="0 0 209 206" enable-background="new 0 0 209 206" xml:space="preserve">
<g id="apple_group">
	<g>
		<path fill="#FF6D55" d="M159.25,116.25c0,32.27-8.73,50.57-26,63.75c-3.18,2.27-10.98,3.91-14.61,2.54
			c-7.27-2.271-15-3.63-22.28-3.63c-7.73,0-15,1.359-22.27,3.63c-4.09,1.37-8.64,2.28-12.73,2.28c-12.27,0-26.92-2.86-32.98-14.2
			c0.22,0.42,0.45,0.83,0.68,1.229c-9.25-14.02-14.97-33.56-14.97-55.21c0-42.729,22.27-77.28,50-77.28
			c6.82,0,12.27,1.37,16.37,4.09c9.09,6.37,22.12,5.66,32.42,2.8c4.5-1.25,9.62-5.13,11.62-7c3.9-0.24,6.32-0.37,8.59,0.67
			c-1.33-0.17-2.09-0.17-2.09-0.17C151.5,52.25,159.25,88.52,159.25,116.25z"/>
		<path fill="#FF654E" d="M25.256,116.609c0-40.648,20.359-74.123,45.513-75.133c6.214-0.25,11.191,0.803,14.846,3.175
			c8.263,5.361,19.973,4.462,29.197,1.532c4.029-1.281,8.623-4.977,10.328-6.802c1.562-0.131,2.85-0.241,3.974-0.241
			c1.453,0.035,2.714,0.235,3.976,0.78c-1.18-0.151-1.823-0.142-1.757-0.128c19.788,11.715,29.2,46.109,29.339,76.453
			c0.096,33.072-9.31,52.686-27.383,64.852c-1.84,1.26-5.27,2.299-8.496,2.642c-2.109,0.231-4.125,0.158-5.531-0.356
			c-7.052-2.147-14.559-3.472-21.363-3.493c-5.513-0.172-10.816,0.34-16.059,1.426c-0.095,0.02-0.19,0.039-0.284,0.059
			c-2.152,0.454-4.3,0.983-6.432,1.638c-2.989,0.917-6.168,1.704-9.255,2.13c-1.27,0.172-2.524,0.277-3.741,0.305
			c-1.899,0.047-3.842,0.015-5.787-0.122c-0.342-0.024-0.685-0.052-1.027-0.081c-10.678-0.94-21.538-4.846-26.804-14.414
			c0.177,0.351,0.363,0.691,0.55,1.021c-0.091-0.143-0.178-0.288-0.272-0.431c-1.4-2.116-2.089-5.07-2.699-8.506
			c-0.199-1.124-0.344-2.341-0.492-3.618c-0.251-2.168-0.41-4.334-0.495-6.454c-0.083-2.058-0.087-4.067-0.051-6.056
			c-0.064-1.313,0.22-2.881,0.179-4.517C25.274,134.689,25.255,126.314,25.256,116.609z"/>
		<path fill="#FF5C48" d="M36.422,116.579c0-38.566,18.43-70.969,41.026-72.986c5.604-0.5,10.077,0.29,13.323,2.261
			c7.355,4.467,17.825,3.265,25.973,0.264c3.559-1.313,7.627-4.824,9.038-6.605c1.381-0.156,2.511-0.29,3.489-0.322
			c1.332,0.032,2.551,0.216,3.818,0.729c-1.028-0.131-1.556-0.113-1.424-0.086c19.076,10.93,30.15,43.448,30.427,76.405
			c0.191,33.876-9.887,54.801-28.766,65.953c-1.767,1.155-5.043,2.086-8.149,2.39c-2.007,0.196-3.928,0.125-5.293-0.357
			c-6.834-2.024-14.118-3.314-20.448-3.356c-5.611-0.345-11.029,0.013-16.394,1.005c-0.098,0.017-0.196,0.034-0.291,0.053
			c-2.205,0.425-4.408,0.921-6.595,1.556c-3.07,0.892-6.309,1.707-9.452,2.201c-1.292,0.203-2.57,0.334-3.811,0.389
			c-1.951,0.093-3.936,0.093-5.908-0.033c-0.35-0.021-0.7-0.047-1.048-0.075c-10.845-0.903-21.754-5.124-27.3-14.926
			c0.135,0.28,0.277,0.552,0.421,0.813c-0.103-0.164-0.192-0.339-0.307-0.497c-0.745-1.027-0.199-3.468,0.274-6.613
			c0.155-1.031,0.397-2.226,0.61-3.508c0.362-2.181,0.844-4.271,1.402-6.218c0.539-1.882,1.171-3.615,1.81-5.249
			c0.244-1.09,1.155-2.663,1.382-4.353C35.711,137.368,36.422,128.165,36.422,116.579z"/>
		<path fill="#FF5441" d="M47.589,116.55c0-36.486,16.476-67.817,36.538-70.841c4.989-0.752,8.964-0.226,11.8,1.346
			c6.447,3.572,15.678,2.067,22.749-1.004c3.089-1.343,6.631-4.671,7.747-6.407c1.201-0.18,2.173-0.338,3.006-0.402
			c1.211,0.029,2.388,0.196,3.661,0.679c-0.878-0.112-1.289-0.084-1.09-0.044c18.363,10.144,31.1,40.787,31.515,76.358
			c0.286,34.679-10.466,56.916-30.149,67.055c-1.694,1.05-4.815,1.877-7.805,2.137c-1.899,0.165-3.729,0.092-5.053-0.359
			c-6.617-1.901-13.678-3.155-19.533-3.219c-5.71-0.517-11.243-0.315-16.729,0.583c-0.101,0.015-0.202,0.031-0.298,0.047
			c-2.261,0.372-4.517,0.858-6.757,1.475c-3.151,0.867-6.45,1.706-9.649,2.272c-1.313,0.232-2.615,0.39-3.88,0.473
			c-2.002,0.139-4.03,0.171-6.03,0.057c-0.357-0.02-0.714-0.043-1.069-0.07c-11.014-0.842-21.972-5.403-27.795-15.438
			c0.091,0.21,0.19,0.412,0.291,0.604c-0.114-0.186-0.229-0.373-0.34-0.563c-0.203,0.157,1.697-1.87,3.247-4.722
			c0.511-0.94,1.141-2.111,1.712-3.396c0.98-2.199,2.092-4.204,3.298-5.982c1.155-1.703,2.43-3.163,3.671-4.442
			c0.552-0.866,2.089-2.445,2.584-4.188C46.148,140.045,47.588,130.016,47.589,116.55z"/>
		<path fill="#FF4B3B" d="M58.754,116.52c0-34.405,14.487-64.662,32.052-68.694c4.367-1.002,7.849-0.742,10.276,0.431
			c5.537,2.676,13.53,0.87,19.525-2.273c2.619-1.375,5.635-4.518,6.456-6.209c1.021-0.204,1.835-0.387,2.522-0.482
			c1.09,0.026,2.225,0.176,3.504,0.627c-0.728-0.093-1.021-0.056-0.757-0.002c17.651,9.359,32.049,38.126,32.604,76.311
			c0.381,35.482-11.044,59.031-31.532,68.156c-1.623,0.945-4.589,1.669-7.459,1.884c-1.796,0.134-3.531,0.06-4.814-0.36
			c-6.399-1.777-13.237-2.997-18.617-3.081c-5.81-0.689-11.457-0.643-17.064,0.161c-0.104,0.012-0.208,0.027-0.306,0.042
			c-2.315,0.34-4.625,0.796-6.919,1.393c-3.233,0.842-6.592,1.703-9.846,2.343c-1.334,0.263-2.66,0.444-3.95,0.558
			c-2.054,0.18-4.124,0.249-6.151,0.146c-0.364-0.019-0.729-0.04-1.09-0.065c-11.182-0.791-22.188-5.683-28.29-15.949
			c0.048,0.141,0.104,0.272,0.162,0.395c-0.126-0.207-0.252-0.417-0.375-0.631c0.424,1.275,3.6-0.27,6.22-2.828
			c0.87-0.85,1.886-1.999,2.813-3.285c1.602-2.22,3.337-4.141,5.196-5.747c1.766-1.527,3.688-2.711,5.532-3.635
			c0.859-0.642,3.023-2.228,3.787-4.022C56.586,142.723,58.754,131.865,58.754,116.52z"/>
		<path fill="#FF4334" d="M69.921,116.49c0-32.325,12.45-61.491,27.564-66.548c3.735-1.25,6.732-1.26,8.753-0.484
			c4.625,1.775,11.383-0.328,16.302-3.541c2.147-1.406,4.638-4.365,5.165-6.012c0.841-0.229,1.496-0.436,2.037-0.563
			c0.969,0.023,2.063,0.157,3.348,0.577c-0.576-0.073-0.755-0.027-0.424,0.04c16.939,8.573,32.999,35.465,33.691,76.263
			c0.478,36.285-11.622,61.147-32.915,69.258c-1.55,0.84-4.36,1.461-7.113,1.632c-1.69,0.104-3.333,0.026-4.575-0.362
			c-6.182-1.654-12.797-2.839-17.701-2.943c-5.909-0.861-11.671-0.971-17.399-0.26c-0.107,0.01-0.214,0.022-0.313,0.035
			c-2.37,0.303-4.734,0.733-7.082,1.312c-3.314,0.816-6.733,1.701-10.043,2.414c-1.356,0.292-2.705,0.5-4.019,0.641
			c-2.105,0.226-4.218,0.329-6.273,0.237c-0.371-0.017-0.743-0.036-1.111-0.061c-11.348-0.757-22.404-5.961-28.785-16.462
			c0.005,0.071,0.017,0.134,0.032,0.187c-0.138-0.229-0.274-0.461-0.408-0.697c1.05,2.395,5.503,1.334,9.194-0.937
			c1.229-0.756,2.634-1.886,3.916-3.173c2.228-2.238,4.579-4.08,7.093-5.512c2.376-1.354,4.945-2.259,7.393-2.828
			c1.167-0.419,3.958-2.011,4.99-3.857C67.022,145.4,69.921,133.716,69.921,116.49z"/>
		<path fill="#FF3B2E" d="M81.087,116.46c0-30.243,10.354-58.279,23.077-64.401c3.091-1.487,5.613-1.779,7.229-1.399
			c3.706,0.871,9.235-1.525,13.079-4.809c1.677-1.438,3.64-4.212,3.873-5.814c0.661-0.252,1.158-0.484,1.555-0.642
			c0.848,0.021,1.899,0.137,3.189,0.526c-0.426-0.054-0.487,0.001-0.09,0.082c16.227,7.788,33.947,32.804,34.779,76.216
			c0.572,37.088-12.201,63.263-34.299,70.359c-1.477,0.735-4.133,1.254-6.768,1.378c-1.585,0.075-3.135-0.006-4.337-0.363
			c-5.964-1.531-12.356-2.681-16.785-2.807c-6.007-1.033-11.885-1.298-17.734-0.681c-0.109,0.007-0.219,0.019-0.319,0.03
			c-2.423,0.274-4.844,0.669-7.244,1.229c-3.396,0.791-6.874,1.701-10.24,2.486c-1.377,0.321-2.75,0.556-4.088,0.725
			c-2.157,0.272-4.313,0.406-6.396,0.326c-0.378-0.014-0.758-0.032-1.132-0.056c-11.515-0.722-22.622-6.239-29.28-16.974
			c-0.038,0.002-0.069-0.005-0.097-0.021c-0.149-0.25-0.298-0.504-0.443-0.764c1.677,3.513,7.407,2.94,12.167,0.955
			c1.587-0.661,3.383-1.77,5.017-3.061c2.854-2.255,5.822-4.022,8.99-5.277c2.986-1.183,6.204-1.806,9.254-2.021
			c1.475-0.194,4.891-1.793,6.192-3.692C77.46,148.078,81.087,135.566,81.087,116.46z"/>
		<path fill="#FF3227" d="M92.253,116.43c0-28.162,8.194-54.989,18.59-62.255c2.436-1.702,4.492-2.432,5.706-2.314
			c2.758,0.266,7.088-2.723,9.855-6.077c1.207-1.468,2.644-4.059,2.582-5.616c0.481-0.277,0.82-0.533,1.07-0.723
			c0.727,0.018,1.737,0.118,3.033,0.475c-0.275-0.035-0.221,0.029,0.242,0.124c15.516,7.003,34.898,30.143,35.869,76.168
			c0.668,37.892-12.779,65.378-35.682,71.462c-1.405,0.629-3.905,1.047-6.423,1.125c-1.479,0.046-2.937-0.039-4.098-0.364
			c-5.747-1.408-11.916-2.522-15.87-2.67c-6.106-1.206-12.098-1.626-18.069-1.103c-0.113,0.005-0.225,0.015-0.327,0.024
			c-2.478,0.232-4.953,0.607-7.406,1.147c-3.478,0.767-7.015,1.698-10.438,2.557c-1.399,0.351-2.795,0.612-4.157,0.809
			c-2.209,0.319-4.406,0.486-6.517,0.418c-0.386-0.013-0.773-0.03-1.154-0.052c-11.682-0.672-21.247-7.704-29.775-17.485
			c-0.07-0.08-0.155-0.145-0.227-0.23c-0.161-0.271-0.321-0.548-0.476-0.83c2.302,4.631,9.309,4.549,15.14,2.848
			c1.946-0.567,4.133-1.655,6.119-2.95c3.482-2.27,7.065-3.966,10.888-5.042c3.598-1.014,7.462-1.354,11.114-1.213
			c1.783,0.029,5.826-1.575,7.395-3.528C87.897,150.755,92.253,137.417,92.253,116.43z"/>
		<path fill="#FF2A21" d="M103.419,116.4c0-26.082,6.014-51.562,14.103-60.109c1.781-1.883,3.345-2.807,4.183-3.229
			c1.805-0.909,4.939-3.92,6.631-7.345c0.737-1.499,1.647-3.905,1.291-5.418c0.302-0.301,0.482-0.582,0.588-0.803
			c0.605,0.015,1.574,0.098,2.875,0.424c-0.125-0.016,0.047,0.058,0.576,0.166c14.803,6.218,35.848,27.481,36.957,76.121
			c0.763,38.694-13.358,67.493-37.065,72.563c-1.332,0.524-3.677,0.843-6.077,0.873c-1.373,0.018-2.738-0.072-3.859-0.366
			c-5.528-1.284-11.475-2.364-14.953-2.532c-6.206-1.379-12.312-1.953-18.405-1.524c-0.116,0.003-0.231,0.011-0.334,0.019
			c-2.532,0.189-5.062,0.545-7.568,1.066c-3.561,0.741-7.156,1.695-10.635,2.627c-1.42,0.38-2.84,0.67-4.227,0.894
			c-2.261,0.365-4.5,0.564-6.639,0.507c-0.394-0.01-0.787-0.025-1.174-0.045c-11.851-0.608-22.187-7.407-30.271-17.998
			c-0.113-0.148-0.242-0.285-0.357-0.439c-0.172-0.293-0.344-0.592-0.51-0.896c2.929,5.748,11.21,6.155,18.113,4.739
			c2.303-0.473,4.882-1.538,7.221-2.838c4.11-2.284,8.31-3.909,12.784-4.807c4.211-0.845,8.72-0.901,12.975-0.405
			c2.091,0.252,6.76-1.358,8.598-3.364C98.334,153.433,103.419,139.268,103.419,116.4z"/>
		<path fill="#FF221A" d="M114.585,116.369c0-23.999,3.93-47.968,9.616-57.961c1.152-2.024,2.221-3.284,2.659-4.144
			c0.875-1.718,2.792-5.118,3.408-8.613c0.266-1.53,0.65-3.753,0-5.221c0.121-0.325,0.144-0.63,0.103-0.883
			c0.484,0.012,1.411,0.079,2.719,0.374c0.025,0.004,0.313,0.086,0.909,0.208c14.091,5.433,36.798,24.82,38.046,76.073
			c0.857,39.498-13.937,69.608-38.449,73.664c-1.26,0.42-3.449,0.64-5.73,0.621c-1.27-0.011-2.541-0.104-3.621-0.368
			c-5.311-1.161-11.035-2.206-14.038-2.396c-6.304-1.551-12.525-2.279-18.739-1.944c-0.119,0-0.237,0.007-0.341,0.013
			c-2.587,0.151-5.17,0.481-7.73,0.984c-3.643,0.716-7.297,1.693-10.832,2.698c-1.441,0.409-2.884,0.729-4.295,0.978
			c-2.312,0.415-4.595,0.643-6.761,0.597c-0.4-0.008-0.801-0.021-1.195-0.04c-12.017-0.573-22.743-7.441-30.766-18.51
			c-0.157-0.217-0.328-0.425-0.486-0.648c-0.184-0.313-0.368-0.635-0.544-0.963c3.555,6.866,13.113,7.776,21.087,6.632
			c2.661-0.375,5.631-1.422,8.322-2.727c4.738-2.298,9.556-3.854,14.682-4.571c4.824-0.675,9.978-0.449,14.836,0.401
			c2.398,0.476,7.694-1.142,9.8-3.199C108.771,156.11,114.585,141.118,114.585,116.369z"/>
		<path fill="#FF1914" d="M125.752,116.34c0-21.919,2.086-44.292,5.128-55.816c0.567-2.15,1.131-3.777,1.136-5.059
			c0.011-2.565,0.646-6.315,0.186-9.882c-0.205-1.562-0.347-3.599-1.292-5.022c-0.059-0.35-0.194-0.679-0.381-0.963
			c0.363,0.009,1.249,0.059,2.562,0.322c0.176,0.023,0.58,0.115,1.242,0.25c13.379,4.647,37.748,22.159,39.134,76.026
			c0.953,40.301-14.515,71.724-39.831,74.766c-1.188,0.314-3.222,0.438-5.387,0.368c-1.162-0.037-2.342-0.138-3.381-0.37
			c-5.094-1.038-10.594-2.048-13.122-2.258c-6.403-1.723-12.739-2.607-19.075-2.366c-0.121-0.002-0.243,0.003-0.348,0.008
			c-2.642,0.113-5.28,0.422-7.893,0.902c-3.723,0.697-7.437,1.691-11.029,2.77c-1.462,0.438-2.929,0.785-4.365,1.061
			c-2.363,0.462-4.688,0.721-6.882,0.688c-0.408-0.007-0.816-0.019-1.216-0.036c-12.184-0.539-23.144-7.592-31.261-19.021
			c-0.202-0.284-0.415-0.563-0.616-0.856c-0.195-0.335-0.39-0.679-0.578-1.029c4.181,7.984,15.012,9.382,24.06,8.523
			c3.019-0.281,6.38-1.305,9.425-2.615c5.365-2.31,10.8-3.806,16.578-4.336c5.438-0.514,11.236,0.003,16.697,1.209
			c2.706,0.699,8.628-0.924,11.003-3.034C119.208,158.788,125.752,142.969,125.752,116.34z"/>
		<path fill="#FF110D" d="M136.918,116.31c0-19.838,0.504-40.708,0.642-53.669c0.024-2.299,0.033-4.29-0.388-5.974
			c-0.863-3.453-1.503-7.512-3.039-11.149c-0.675-1.593-1.343-3.447-2.582-4.826c-0.239-0.374-0.533-0.727-0.865-1.043
			c0.242,0.006,1.086,0.039,2.404,0.271c0.327,0.043,0.848,0.144,1.576,0.292c12.666,3.862,38.697,19.499,40.221,75.979
			c1.049,41.104-15.093,73.84-41.213,75.867c-1.115,0.21-2.995,0.239-5.041,0.116c-1.058-0.063-2.145-0.171-3.143-0.371
			c-4.876-0.915-10.154-1.89-12.207-2.121c-6.502-1.896-12.953-2.936-19.41-2.788c-0.125-0.005-0.249-0.001-0.356,0.002
			c-2.695,0.075-5.389,0.358-8.055,0.821c-3.805,0.67-7.578,1.689-11.226,2.84c-1.484,0.468-2.975,0.842-4.435,1.146
			c-2.415,0.508-4.783,0.8-7.004,0.776c-0.415-0.004-0.831-0.014-1.238-0.03c-12.351-0.49-23.498-7.776-31.755-19.533
			c-0.247-0.352-0.501-0.703-0.745-1.065c-0.207-0.356-0.414-0.723-0.612-1.097c4.808,9.104,16.912,10.988,27.034,10.416
			c3.375-0.188,7.128-1.187,10.526-2.503c5.992-2.321,12.047-3.748,18.476-4.101c6.051-0.343,12.494,0.455,18.558,2.016
			c3.015,0.923,9.563-0.706,12.205-2.87C129.646,161.466,136.918,144.818,136.918,116.31z"/>
		<path fill="#FF0807" d="M148.084,116.28c0-17.757-0.973-37.316-3.846-51.524c-0.503-2.488-1.069-4.806-1.912-6.888
			c-1.746-4.352-3.648-8.71-6.261-12.418c-1.146-1.624-2.34-3.293-3.874-4.627c-0.419-0.398-0.871-0.776-1.349-1.124
			c0.121,0.003,0.923,0.02,2.247,0.221c0.478,0.062,1.115,0.172,1.909,0.334c11.954,3.077,39.646,16.837,41.31,75.932
			c1.145,41.906-15.671,75.955-42.597,76.969c-1.042,0.104-2.767,0.04-4.695-0.138c-0.952-0.088-1.946-0.203-2.904-0.372
			c-4.658-0.792-9.713-1.731-11.291-1.984c-6.601-2.066-13.166-3.263-19.745-3.208c-0.127-0.008-0.254-0.006-0.363-0.005
			c-2.75,0.031-5.499,0.295-8.218,0.74c-3.887,0.643-7.718,1.687-11.423,2.911c-1.505,0.497-3.019,0.897-4.503,1.229
			c-2.466,0.555-4.877,0.879-7.125,0.867c-0.422-0.002-0.846-0.011-1.259-0.025c-12.517-0.456-23.828-7.978-32.251-20.046
			c-0.292-0.419-0.588-0.842-0.875-1.273c-0.218-0.378-0.437-0.766-0.646-1.163c5.434,10.222,18.811,12.595,30.006,12.309
			c3.733-0.094,7.877-1.07,11.628-2.393c6.619-2.334,13.293-3.688,20.373-3.865c6.666-0.171,13.752,0.907,20.419,2.823
			c3.321,1.146,10.496-0.488,13.407-2.705C140.082,164.143,148.084,146.669,148.084,116.28z"/>
		<path fill="#FF0000" d="M133.75,194.25c-0.97,0-2.54-0.15-4.35-0.39c-4.95-0.641-11.71-1.891-13.04-2.221
			c-6.7-2.239-13.38-3.59-20.081-3.63C96.15,188,96.02,188,95.91,188c-6.82,0-13.64,1.36-20,3.64c-4.09,1.36-8.18,2.271-11.82,2.271
			c-0.43,0-0.86-0.01-1.28-0.021c-13.18-0.51-25.04-8.81-33.75-22.04c-0.23-0.399-0.46-0.81-0.68-1.229
			c6.06,11.34,20.71,14.2,32.98,14.2c4.09,0,8.64-0.91,12.73-2.28c7.27-2.271,14.54-3.63,22.27-3.63c7.28,0,15.01,1.359,22.28,3.63
			c3.63,1.37,11.431-0.271,14.61-2.54c17.27-13.18,26-31.48,26-63.75c0-27.73-7.75-64-28.25-76.5c0,0,0.76,0,2.09,0.17
			c8.83,1.14,42.7,9.83,44.641,76.26C178.97,158.89,161.48,194.25,133.75,194.25z"/>
	</g>
	<path fill="#014463" d="M127.728,30.272c-8.639,0-15.909,1.818-21.364,5.908c-1.818,1.365-3.636,2.273-5.909,2.728V7.545
		c0-2.728-1.818-4.545-4.545-4.545s-4.545,1.818-4.545,4.545v31.363c-2.273-0.455-4.09-1.363-5.908-2.728
		C80,32.09,72.727,30.272,64.091,30.272C31.363,30.272,5,68.909,5,116.637C5,164.363,31.363,203,64.091,203
		c5,0,10.001-0.91,14.999-2.726c10.911-4.093,23.183-4.093,34.091,0c5.003,1.815,10.001,2.726,14.547,2.726
		c32.728,0,59.091-38.637,59.091-86.363C186.818,68.909,160.455,30.272,127.728,30.272 M127.728,193.909
		c-3.636,0-7.729-0.91-11.364-2.272c-6.818-2.273-13.636-3.636-20.454-3.636s-13.637,1.362-20,3.636
		c-4.09,1.362-8.183,2.272-11.819,2.272c-27.728,0-50-34.544-50-77.272c0-42.727,22.272-77.273,50-77.273
		c6.818,0,12.273,1.363,16.364,4.09c9.091,6.363,21.817,6.363,31.363,0c3.635-2.728,9.091-4.09,15.909-4.09
		c27.726,0,50,34.546,50,77.273C177.728,159.365,155.453,193.909,127.728,193.909"/>
	<path fill="#90C962" d="M119.999,31.636c5.003-5.456,7.729-12.274,7.729-19.545c-7.271,0-14.089,2.726-19.545,7.726
		c-5.002,5.456-7.728,12.273-7.728,19.547C107.726,39.364,114.544,36.636,119.999,31.636"/>
	<path fill="#014463" d="M100.91,48.455c-1.818,0-3.638,0-5.456-0.455s-3.636-1.818-3.636-3.635
		c-1.817-10.909,2.273-22.728,9.999-30.456c8.181-8.181,19.544-11.819,30.455-9.999c1.82,0.453,3.636,1.817,3.636,3.635
		c1.82,10.909-2.272,22.727-10.001,30.456C119.547,44.819,109.998,48.455,100.91,48.455 M100.455,39.364
		c7.271,0,14.089-2.728,19.544-7.728c5.003-5.454,7.729-12.271,7.729-19.545c-7.271,0-14.089,2.728-19.545,7.729
		C103.182,25.272,100.455,32.09,100.455,39.364"/>
	<path fill="#009700" d="M100.91,34.818c6.821,0,13.634-2.728,19.089-7.729c4.093-4.09,6.818-9.091,7.729-14.544h0.452
		c0,7.273-2.725,14.091-7.724,19.544c-5.912,4.545-12.726,7.273-20.001,7.273C100.455,38.001,100.455,36.181,100.91,34.818"/>
	<path fill="#FFEDA9" d="M68.636,134.818c2.273,33.181,30,59.091,63.636,59.091c33.639,0,60.911-25.91,63.637-59.091H68.636z"/>
	<path fill="#014463" d="M132.272,203c-39.999,0-72.727-32.729-72.727-72.728c0-2.726,1.818-4.545,4.545-4.545h136.364
		c2.725,0,4.545,1.819,4.545,4.545C205,170.271,172.271,203,132.272,203 M68.636,134.818c2.273,33.181,30,59.091,63.636,59.091
		c33.639,0,60.911-25.91,63.637-59.091H68.636z"/>
	<path fill="#E6C54B" d="M190.453,134.818c-4.545,30.908-30.908,54.545-62.726,54.545c-15.909,0-30.456-5.908-41.819-15.908
		c11.364,12.726,28.183,20.454,46.364,20.454c33.639,0,61.364-25.91,63.637-59.091H190.453z"/>
	<path fill="#014463" d="M145.625,142.375c0.028-0.783,0.119-1.18,0.166-1.33c-0.066,0.135-0.256,0.434-0.685,0.751
		c-1.555,1.151-3.58,1.51-5.437,1.858c-3.403,0.639-7.586,0.802-9.716-2.298c-2.901-4.223-9.838-0.228-6.908,4.037
		c4.142,6.027,10.28,7.216,17.309,6.187c4.766-0.699,13.048-3.115,13.271-9.205C153.813,137.214,145.813,137.232,145.625,142.375z"
		/>
	<path fill="#FFFFFF" d="M59.275,58.877c-2.634,1.524-5.773,3.833-8.635,7.252c1.914,0.998,4.025,2.198,6.341,3.611
		c2.48-2.784,5.808-5.324,10.353-8.074L59.275,58.877z M54.613,57.264L50,55.667c-4.002,1.819-7.035,4.02-9.332,6.349
		c1.77,0.463,3.871,1.208,6.392,2.354C49.49,61.335,52.138,59.021,54.613,57.264z M37.781,65.536
		c-5.012,7.385-4.114,14.797-4.114,14.797l5.284,3.02c0.999-6.397,3.116-11.547,5.729-15.663
		C41.465,66.293,39.261,65.728,37.781,65.536z M42.689,85.489L50,89.667c0.679-7.295,1.884-12.427,4.565-16.723
		c-2.372-1.436-4.478-2.61-6.325-3.554C45.609,73.468,43.501,78.732,42.689,85.489z"/>
</g>
</svg>
