<?xml version="1.0" encoding="UTF-8" standalone="no"?>
<!-- Generator: Adobe Illustrator 16.0.0, SVG Export Plug-In . SVG Version: 6.00 Build 0)  -->

<svg
   xmlns:dc="http://purl.org/dc/elements/1.1/"
   xmlns:cc="http://creativecommons.org/ns#"
   xmlns:rdf="http://www.w3.org/1999/02/22-rdf-syntax-ns#"
   xmlns:svg="http://www.w3.org/2000/svg"
   xmlns="http://www.w3.org/2000/svg"
   xmlns:sodipodi="http://sodipodi.sourceforge.net/DTD/sodipodi-0.dtd"
   xmlns:inkscape="http://www.inkscape.org/namespaces/inkscape"
   version="1.1"
   id="onion"
   x="0px"
   y="0px"
   width="259px"
   height="316px"
   viewBox="0 0 259 316"
   enable-background="new 0 0 259 316"
   xml:space="preserve"
   inkscape:version="0.91 r13725"
   sodipodi:docname="birra-vuota.svg"><metadata
     id="metadata30"><rdf:RDF><cc:Work
         rdf:about=""><dc:format>image/svg+xml</dc:format><dc:type
           rdf:resource="http://purl.org/dc/dcmitype/StillImage" /></cc:Work></rdf:RDF></metadata><defs
     id="defs25" /><sodipodi:namedview
     pagecolor="#ffffff"
     bordercolor="#666666"
     borderopacity="1"
     objecttolerance="10"
     gridtolerance="10"
     guidetolerance="10"
     inkscape:pageopacity="0"
     inkscape:pageshadow="2"
     inkscape:window-width="1440"
     inkscape:window-height="851"
     id="namedview23"
     showgrid="false"
     inkscape:zoom="2.2436709"
     inkscape:cx="101.47984"
     inkscape:cy="158"
     inkscape:window-x="0"
     inkscape:window-y="1"
     inkscape:window-maximized="1"
     inkscape:current-layer="onion"
     showguides="true"
     inkscape:guide-bbox="true" /><path
     style="fill:#014263;fill-opacity:1"
     d="M 39.441406 64.179688 L 32.535156 71.410156 L 32.535156 309.63672 L 34.740234 311.83984 L 37.75 314.84961 L 110.18945 314.84961 L 182.62891 314.84961 L 185.63672 311.83984 C 188.40662 309.06994 188.64648 307.91161 188.64648 297.25586 L 188.64648 285.67969 L 203.66406 285.23633 C 216.54514 284.85566 219.54914 284.36675 224.7793 281.80273 C 232.54924 277.9936 240.04617 270.50153 243.87695 262.7168 L 246.87695 256.61914 L 246.87695 199.61523 L 246.87695 142.61133 L 243.87695 136.51367 C 240.04617 128.72894 232.54924 121.2349 224.7793 117.42578 C 219.54914 114.86176 216.54514 114.37479 203.66406 113.99414 L 188.64648 113.54883 L 188.64648 109.02734 C 188.64648 107.45265 188.68328 106.41884 188.97656 105.66992 L 188.97656 93.521484 C 188.89381 93.405381 188.75662 82.994685 188.62109 71.195312 L 181.44531 64.179688 L 39.441406 64.179688 z "
     id="path3479" /><path
     inkscape:connector-curvature="0"
     style="fill:#d5e5ff;fill-opacity:1"
     d="m 178.83917,295.23525 0,-9.80721 -68.65049,0 -68.650459,0 0,9.80721 0,9.80721 68.650459,0 68.65049,0 0,-9.80721 z"
     id="path3477" /><path
     style="fill:#d5e5ff;fill-opacity:1"
     d="m 149.66666,201.93576 c 0,-51.88187 -0.40979,-74.67785 -1.38491,-77.04024 -3.10215,-7.51534 -13.74244,-7.51534 -16.84458,0 -0.97513,2.36239 -1.38493,25.15837 -1.38493,77.04024 l 0,73.68507 9.80721,0 9.80721,0 0,-73.68507 z"
     id="path3469"
     inkscape:connector-curvature="0" /><path
     style="fill:#d5e5ff;fill-opacity:1"
     d="m 178.83915,201.93576 c 0,-51.88187 -0.4098,-74.67785 -1.38493,-77.04024 -3.10214,-7.51534 -13.74244,-7.51534 -16.84458,0 -0.97512,2.36239 -1.38493,25.15837 -1.38493,77.04024 l 0,73.68507 9.80723,0 9.80721,0 0,-73.68507 z"
     id="path3467"
     inkscape:connector-curvature="0" /><path
     inkscape:connector-curvature="0"
     style="fill:#d5e5ff;fill-opacity:1"
     d="m 220.51981,272.67173 c 5.95881,-3.10313 10.78851,-7.82754 13.90365,-13.60058 2.59764,-4.81396 2.64603,-5.90081 2.64603,-59.4562 0,-53.55541 -0.0485,-54.64226 -2.64603,-59.45622 -3.11514,-5.77302 -7.94484,-10.49744 -13.90365,-13.60058 -3.18006,-1.65606 -7.86044,-2.36115 -18.08204,-2.72407 l -13.79139,-0.48964 0,4.92746 0,4.92746 13.39939,0.41491 c 14.47843,0.44837 17.20737,1.51347 22.68894,8.85542 2.46291,3.29881 2.52755,4.76025 2.52755,57.14526 0,52.38499 -0.0646,53.84643 -2.52755,57.14524 -5.48157,7.34195 -8.21051,8.40705 -22.68894,8.85542 l -13.39939,0.41493 0,4.92744 0,4.92745 13.79139,-0.48963 c 10.2216,-0.36293 14.90198,-1.06802 18.08204,-2.72407 z"
     id="path3465" /><path
     inkscape:connector-curvature="0"
     style="fill:#ffffff;fill-opacity:1"
     d="m 214.83608,252.77448 3.23193,-3.23193 0,-49.9276 0,-49.92762 -3.23193,-3.23193 c -3.03174,-3.03175 -3.94285,-3.23191 -14.7108,-3.23191 l -11.4789,0 0,56.39146 0,56.39146 11.4789,0 c 10.76795,0 11.67906,-0.20018 14.7108,-3.23193 z"
     id="path3463" /><path
     id="path3481"
     d="m 120.49418,201.93576 c 0,-51.88187 -0.4098,-74.67785 -1.38493,-77.04024 -3.10214,-7.51534 -13.74245,-7.51534 -16.84459,0 -0.97512,2.36239 -1.38493,25.15837 -1.38493,77.04024 l 0,73.68507 9.80724,0 9.80721,0 0,-73.68507 z"
     style="fill:#d5e5ff;fill-opacity:1"
     inkscape:connector-curvature="0" /><path
     inkscape:connector-curvature="0"
     style="fill:#d5e5ff;fill-opacity:1"
     d="m 91.321676,201.93576 c 0,-51.88187 -0.409804,-74.67785 -1.384929,-77.04024 -3.102143,-7.51534 -13.742439,-7.51534 -16.844582,0 -0.975126,2.36239 -1.384929,25.15837 -1.384929,77.04024 l 0,73.68507 9.80723,0 9.80721,0 0,-73.68507 z"
     id="path3483" /><path
     id="path3485"
     d="m 62.149179,201.93576 c 0,-51.88187 -0.409803,-74.67785 -1.384929,-77.04024 -3.102143,-7.51534 -13.742439,-7.51534 -16.844581,0 -0.975126,2.36239 -1.38493,25.15837 -1.38493,77.04024 l 0,73.68507 9.80723,0 9.80721,0 0,-73.68507 z"
     style="fill:#d5e5ff;fill-opacity:1"
     inkscape:connector-curvature="0" /><path
     id="path3511"
     d="m 178.83917,298.57799 0,-6.46448 -68.65049,0 -68.650459,0 0,6.46448 0,6.46447 68.650459,0 68.65049,0 0,-6.46447 z"
     style="fill:#d6942a;fill-opacity:1"
     inkscape:connector-curvature="0" /><path
     inkscape:connector-curvature="0"
     id="path4313"
     d="m 178.83915,203.79049 c 0,-50.57593 -0.12113,-72.79812 -0.40937,-75.10104 -0.91695,-7.32617 -4.0621,-7.32617 -4.97906,0 -0.28823,2.30292 -0.40937,24.52511 -0.40937,75.10104 l 0,71.83034 2.8989,0 2.8989,0 0,-71.83034 z"
     style="fill:#ffffff;fill-opacity:1" /><path
     style="fill:#ffffff;fill-opacity:1"
     d="m 149.28485,203.79049 c 0,-50.57593 -0.12113,-72.79812 -0.40937,-75.10104 -0.91695,-7.32617 -4.0621,-7.32617 -4.97906,0 -0.28823,2.30292 -0.40937,24.52511 -0.40937,75.10104 l 0,71.83034 2.8989,0 2.8989,0 0,-71.83034 z"
     id="path4315"
     inkscape:connector-curvature="0" /><path
     inkscape:connector-curvature="0"
     id="path4317"
     d="m 120.39345,203.79049 c 0,-50.57593 -0.12113,-72.79812 -0.40937,-75.10104 -0.91695,-7.32617 -4.0621,-7.32617 -4.97906,0 -0.28823,2.30292 -0.40937,24.52511 -0.40937,75.10104 l 0,71.83034 2.8989,0 2.8989,0 0,-71.83034 z"
     style="fill:#ffffff;fill-opacity:1" /><path
     style="fill:#ffffff;fill-opacity:1"
     d="m 90.839148,203.79049 c 0,-50.57593 -0.12113,-72.79812 -0.40937,-75.10104 -0.91695,-7.32617 -4.0621,-7.32617 -4.97906,0 -0.28823,2.30292 -0.40937,24.52511 -0.40937,75.10104 l 0,71.83034 2.8989,0 2.8989,0 0,-71.83034 z"
     id="path4319"
     inkscape:connector-curvature="0" /><path
     inkscape:connector-curvature="0"
     id="path4321"
     d="m 61.284846,203.79049 c 0,-50.57593 -0.12113,-72.79812 -0.40937,-75.10104 -0.91695,-7.32617 -4.0621,-7.32617 -4.97906,0 -0.28823,2.30292 -0.40937,24.52511 -0.40937,75.10104 l 0,71.83034 2.8989,0 2.8989,0 0,-71.83034 z"
     style="fill:#ffffff;fill-opacity:1" /><path
     id="path4174"
     d="m 178.83917,93.04061 0,-19.61257 -68.65049,0 -68.650459,0 0,19.61257 0,19.61257 68.650459,0 68.65049,0 0,-19.61257 z"
     style="fill:#d5e5ff;fill-opacity:1"
     inkscape:connector-curvature="0" /><path
     style="color:#000000;display:inline;overflow:visible;visibility:visible;fill:none;fill-rule:evenodd;stroke:#ffffff;stroke-width:6.57180405;stroke-linecap:round;stroke-linejoin:round;stroke-miterlimit:4;stroke-dasharray:none;stroke-dashoffset:0;stroke-opacity:1;marker:none;enable-background:accumulate"
     d="m 51.279975,83.34556 69.925235,0"
     id="path4187"
     inkscape:connector-curvature="0" /><path
     inkscape:connector-curvature="0"
     id="path4189"
     d="m 133.94673,83.34556 10.10936,0"
     style="color:#000000;display:inline;overflow:visible;visibility:visible;fill:none;fill-rule:evenodd;stroke:#ffffff;stroke-width:7;stroke-linecap:round;stroke-linejoin:round;stroke-miterlimit:4;stroke-dasharray:none;stroke-dashoffset:0;stroke-opacity:1;marker:none;enable-background:accumulate" /><path
     style="fill:#014263;fill-opacity:1"
     d="m 40.565836,118.5292 27.119042,0 c -0.280092,-3.34542 -0.607834,-5.59898 -1.015401,-6.14364 -4.621081,-6.17552 -20.470071,-6.17552 -25.09115,0 -0.407567,0.54466 -0.732399,2.79822 -1.012491,6.14364 z"
     id="path4200"
     inkscape:connector-curvature="0" /><path
     inkscape:connector-curvature="0"
     id="path4213"
     d="m 68.565836,118.5292 27.119042,0 c -0.280092,-3.34542 -0.607834,-5.59898 -1.015401,-6.14364 -4.621081,-6.17552 -20.470071,-6.17552 -25.09115,0 -0.407567,0.54466 -0.732399,2.79822 -1.012491,6.14364 z"
     style="fill:#014263;fill-opacity:1" /><path
     style="fill:#014263;fill-opacity:1"
     d="m 96.565836,118.5292 27.119044,0 c -0.28009,-3.34542 -0.60784,-5.59898 -1.0154,-6.14364 -4.62108,-6.17552 -20.47007,-6.17552 -25.091153,0 -0.407567,0.54466 -0.732399,2.79822 -1.012491,6.14364 z"
     id="path4215"
     inkscape:connector-curvature="0" /><path
     inkscape:connector-curvature="0"
     id="path4217"
     d="m 124.56584,118.5292 27.11904,0 c -0.28009,-3.34542 -0.60784,-5.59898 -1.0154,-6.14364 -4.62108,-6.17552 -20.47007,-6.17552 -25.09115,0 -0.40757,0.54466 -0.7324,2.79822 -1.01249,6.14364 z"
     style="fill:#014263;fill-opacity:1" /><path
     style="fill:#014263;fill-opacity:1"
     d="m 152.56584,118.5292 27.11904,0 c -0.28009,-3.34542 -0.60784,-5.59898 -1.0154,-6.14364 -4.62108,-6.17552 -20.47007,-6.17552 -25.09115,0 -0.40757,0.54466 -0.7324,2.79822 -1.01249,6.14364 z"
     id="path4219"
     inkscape:connector-curvature="0" /></svg>