<?xml version="1.0" encoding="utf-8"?>
<!-- Generator: Adobe Illustrator 16.0.0, SVG Export Plug-In . SVG Version: 6.00 Build 0)  -->
<!DOCTYPE svg PUBLIC "-//W3C//DTD SVG 1.1//EN" "http://www.w3.org/Graphics/SVG/1.1/DTD/svg11.dtd">
<svg version="1.1" id="cappuccino" xmlns="http://www.w3.org/2000/svg" xmlns:xlink="http://www.w3.org/1999/xlink" x="0px" y="0px"
	 width="194px" height="213px" viewBox="0 0 194 213" enable-background="new 0 0 194 213" xml:space="preserve">
<g id="group_parts">
	<path fill="#99B5CD" d="M29.818,59.545v109.091h136.363V59.545h-36.363v4.545c0,6.363-4.093,11.364-10.001,13.182l-3.636,15.001
		c-0.453,1.818-2.272,3.636-4.545,3.636H84.364c-2.273,0-4.09-1.363-4.545-3.636l-3.636-15.456
		c-5.91-1.363-10.001-6.363-10.001-12.727v-4.545H29.818z"/>
	<path fill="#4D7C99" d="M143,105h-9.091h-19.533c2.947,23.981,0.478,48.637,1.88,72.728h8.563c7.729,0,13.637-5.908,13.637-13.637
		v-13.636H143c7.729,0,13.637-5.908,13.637-13.637v-18.182C156.637,110.908,150.729,105,143,105z"/>
	<path fill="#6C9ABB" d="M152.545,136.818c0,2.726-1.819,4.545-4.545,4.545h-4.545v-27.272H148c2.726,0,4.545,1.82,4.545,4.546
		V136.818z"/>
	<path fill="#6C9ABB" d="M148,114.091h-4.545v27.272H148c2.726,0,4.545-1.819,4.545-4.545v-18.182
		C152.545,115.911,150.726,114.091,148,114.091z"/>
	<path fill="#ECEFF9" d="M20.728,50.455h154.545c2.726,0,4.546-1.818,4.546-4.545V18.636c0-2.728-1.82-4.545-4.546-4.545H20.728
		c-2.728,0-4.546,1.818-4.546,4.545v27.273C16.182,48.637,18,50.455,20.728,50.455"/>
	<path fill="#99CFFF" d="M175.272,14.091v27.273c0,2.728-1.819,4.545-4.545,4.545H16.182c0,2.728,1.818,4.545,4.546,4.545h154.545
		c2.726,0,4.546-1.818,4.546-4.545V18.636C179.818,15.909,177.998,14.091,175.272,14.091"/>
	<path fill="#014463" d="M29.818,27.728c2.508,0,4.545,2.037,4.545,4.545c0,2.508-2.038,4.546-4.545,4.546
		c-2.508,0-4.546-2.038-4.546-4.546C25.272,29.765,27.31,27.728,29.818,27.728"/>
	<path fill="#014463" d="M48,27.728c2.508,0,4.545,2.037,4.545,4.545c0,2.508-2.038,4.546-4.545,4.546s-4.545-2.038-4.545-4.546
		C43.455,29.765,45.492,27.728,48,27.728"/>
	<path fill="#FFFFFF" d="M120.728,114.091H75.272v50c0,2.726,1.818,4.546,4.546,4.546h36.363c2.726,0,4.546-1.82,4.546-4.546
		V114.091z"/>
	<path fill="#014463" d="M134.363,105h-9.091H70.728c-2.728,0-4.546,1.82-4.546,4.545v54.546c0,7.729,5.908,13.637,13.637,13.637
		h36.363c7.729,0,13.637-5.908,13.637-13.637v-13.636h4.545c7.729,0,13.637-5.908,13.637-13.637v-18.182
		C148,110.908,142.092,105,134.363,105 M120.728,164.091c0,2.726-1.82,4.546-4.546,4.546H79.818c-2.728,0-4.546-1.82-4.546-4.546
		v-50h45.455V164.091z M138.909,136.818c0,2.726-1.82,4.545-4.546,4.545h-4.545v-27.272h4.545c2.726,0,4.546,1.82,4.546,4.546
		V136.818z"/>
	<path fill="#D5E3EF" d="M120.728,59.545H75.272v4.545c0,2.728,1.818,4.545,4.546,4.545h36.363c2.726,0,4.546-1.818,4.546-4.545
		V59.545z"/>
	<polygon fill="#D5E3EF" points="108.001,86.818 110.273,77.728 85.729,77.728 88.001,86.818 	"/>
	<path fill="#014463" d="M148,36.818h-27.272c-2.726,0-4.546-1.818-4.546-4.546c0-2.728,1.82-4.545,4.546-4.545H148
		c2.726,0,4.545,1.817,4.545,4.545C152.545,35,150.726,36.818,148,36.818"/>
	<path fill="#ECEFF9" d="M175.272,195.909c2.726,0,4.546-1.82,4.546-4.546v-9.091c0-2.726-1.82-4.545-4.546-4.545H20.728
		c-2.728,0-4.546,1.819-4.546,4.545v9.091c0,2.726,1.818,4.546,4.546,4.546H43c1.365,0,2.728-0.91,3.183-1.82
		c2.273-4.545,6.363-7.271,11.364-7.271h80.91c4.999,0,9.091,2.726,11.364,7.271c0.452,1.367,1.815,1.82,3.178,1.82H175.272z"/>
	<path fill="#DDE1E3" d="M111.637,114.091c-2.726,0-4.546,1.82-4.546,4.546v45.454c0,2.726-1.819,4.546-4.546,4.546h13.637
		c2.726,0,4.546-1.82,4.546-4.546v-50H111.637z"/>
	<path fill="#DDE1E3" d="M79.818,164.091v-45.454c0-2.726-1.818-4.546-4.546-4.546v50c0,2.726,1.818,4.546,4.546,4.546h4.545
		C81.636,168.637,79.818,166.816,79.818,164.091"/>
	<path fill="#7E8C9B" d="M148,191.363c0.453,0.91,1.363,1.363,1.82,2.273c0.452,1.362,1.815,2.272,3.178,2.272h22.274
		c2.726,0,4.546-1.82,4.546-4.546v-9.091c0-2.726-1.82-4.545-4.546-4.545v9.091c0,2.726-1.819,4.545-4.545,4.545H148z"/>
	<path fill="#C9D5E3" d="M20.728,195.909H43c1.365,0,2.728-0.91,3.183-1.82c0.455-0.905,0.908-1.815,1.818-2.726H16.182
		C16.182,194.089,18,195.909,20.728,195.909"/>
	<rect x="75.272" y="59.545" fill="#99CFFF" width="45.455" height="4.545"/>
	<path fill="#014463" d="M188.909,45.909V18.636c0-7.728-5.908-13.636-13.637-13.636H20.728C12.999,5,7.091,10.908,7.091,18.636
		v27.273c0,7.728,5.908,13.636,13.637,13.636v109.091c-7.729,0-13.637,5.908-13.637,13.636v9.091
		c0,7.729,5.908,13.637,13.637,13.637H43c5,0,9.091-2.726,11.364-7.271c0.455-1.367,1.817-1.819,3.183-1.819h80.91
		c1.363,0,2.726,0.91,3.179,1.819C143.907,202.274,148,205,152.998,205h22.274c7.729,0,13.637-5.908,13.637-13.637v-9.091
		c0-7.728-5.908-13.636-13.637-13.636V59.545C183.001,59.545,188.909,53.637,188.909,45.909 M16.182,45.909V18.636
		c0-2.728,1.818-4.545,4.546-4.545h154.545c2.726,0,4.546,1.818,4.546,4.545v27.273c0,2.728-1.82,4.545-4.546,4.545h-4.545h-45.455
		H70.728H25.272h-4.545C18,50.455,16.182,48.637,16.182,45.909 M79.818,68.636c-2.728,0-4.546-1.818-4.546-4.545v-4.545h45.455
		v4.545c0,2.728-1.82,4.545-4.546,4.545H79.818z M110.273,77.728l-2.272,9.091H87.999l-2.272-9.091H110.273z M179.818,182.272v9.091
		c0,2.726-1.82,4.546-4.546,4.546h-22.274c-1.362,0-2.726-0.91-3.178-1.82c-2.273-4.545-6.365-7.271-11.364-7.271h-80.91
		c-5,0-9.091,2.726-11.364,7.271c-0.455,1.367-1.818,1.82-3.183,1.82H20.728c-2.728,0-4.546-1.82-4.546-4.546v-9.091
		c0-2.726,1.818-4.545,4.546-4.545h4.545h145.455h4.545C177.998,177.728,179.818,179.547,179.818,182.272 M166.182,168.637H29.818
		V59.545h36.363v4.545c0,6.363,4.091,11.364,10.001,13.182l3.636,15.454c0.455,1.82,2.272,3.638,4.545,3.638h27.273
		c2.272,0,4.092-1.365,4.545-3.638l3.636-15.454c5.908-1.818,10.001-6.818,10.001-13.182v-4.545h36.363V168.637z"/>
	<path fill="#D98B37" d="M20.728,86.818H48c2.728,0,4.545-1.818,4.545-4.546c0-2.728-1.818-4.545-4.545-4.545H20.728
		c-2.728,0-4.546,1.817-4.546,4.545C16.182,85,18,86.818,20.728,86.818"/>
	<path fill="#014463" d="M81.181,77.728H60.727c-1.818-5.456-6.818-9.091-12.727-9.091H20.728c-7.729,0-13.637,5.908-13.637,13.636
		c0,7.729,5.908,13.637,13.637,13.637H48c5.908,0,10.909-3.636,12.727-9.091h20.454c1.82,0,3.183-1.818,3.183-4.546
		C84.364,79.545,83.001,77.728,81.181,77.728 M48,86.818H20.728c-2.728,0-4.546-1.818-4.546-4.546c0-2.728,1.818-4.545,4.546-4.545
		H48c2.728,0,4.545,1.817,4.545,4.545C52.545,85,50.728,86.818,48,86.818"/>
</g>
</svg>
