<?xml version="1.0" encoding="utf-8"?>
<!-- Generator: Adobe Illustrator 16.0.0, SVG Export Plug-In . SVG Version: 6.00 Build 0)  -->
<!DOCTYPE svg PUBLIC "-//W3C//DTD SVG 1.1//EN" "http://www.w3.org/Graphics/SVG/1.1/DTD/svg11.dtd">
<svg version="1.1" id="cutting_board" xmlns="http://www.w3.org/2000/svg" xmlns:xlink="http://www.w3.org/1999/xlink" x="0px"
	 y="0px" width="339px" height="311px" viewBox="0 0 339 311" enable-background="new 0 0 339 311" xml:space="preserve">
<g id="parts_group">
	<path fill="#9ABCD8" d="M126.501,230c16.501,0,32.249-6.753,43.499-18.003l79.504-79.497l-9.756-9.749L215,97.999L92.751,220.252
		l5.999,2.995C107.001,227.752,116.753,230,126.501,230"/>
	<path fill="#014463" d="M12.5,290c4.138,0,7.5,3.361,7.5,7.5s-3.362,7.5-7.5,7.5S5,301.639,5,297.5S8.362,290,12.5,290"/>
	<path fill="#014463" d="M305,305H35c-4.501,0-7.5-3.003-7.5-7.5s2.999-7.5,7.5-7.5h270c4.497,0,7.5,3.003,7.5,7.5
		S309.497,305,305,305"/>
	<path fill="#014463" d="M327.5,290c4.139,0,7.5,3.361,7.5,7.5s-3.361,7.5-7.5,7.5s-7.5-3.361-7.5-7.5S323.361,290,327.5,290"/>
	<rect x="57.5" y="275" fill="#D98B37" width="225" height="15"/>
	<path fill="#014463" d="M290,305H50c-4.501,0-7.5-3.003-7.5-7.5v-30c0-4.497,2.999-7.5,7.5-7.5h240c4.497,0,7.5,3.003,7.5,7.5v30
		C297.5,301.997,294.497,305,290,305 M57.5,290h225v-15h-225V290z"/>
	<rect x="57.5" y="282.5" fill="#A84E04" width="225" height="7.5"/>
	<path fill="#D98B37" d="M289.246,23.75l-63.75,63.75L245,107.001l63.75-63.75c2.248-2.252,3.75-6.002,3.75-9.752
		c0-7.5-5.998-13.499-13.498-13.499C295.252,20,291.502,21.501,289.246,23.75"/>
	<path fill="#D5E3EF" d="M242.004,125l-76.505,76.502c-11.997,11.996-26.997,17.995-43.498,17.995
		c-8.251,0-15.751-1.494-23.251-4.497l-5.999,5.998l5.999,3.004c8.251,4.496,17.999,6.745,27.751,6.745
		c16.498,0,32.249-6.745,43.499-17.995l79.504-80.252L242.004,125z"/>
	<path fill="#A84E04" d="M245,107.001l63.75-63.75c2.248-2.249,3.75-5.999,3.75-9.749s-1.502-7.5-3.75-9.752l-73.498,73.502
		L245,107.001z"/>
	<path fill="#D5E3EF" d="M192.5,189.504l-61.501-7.5l-38.998,38.994l5.998,3.004c8.251,4.496,18,6.752,27.752,6.752
		c16.498,0,32.248-6.752,43.498-18.002L192.5,189.504z"/>
	<polygon fill="#D5E3EF" points="200,182.004 215,167.004 153.499,159.504 139.249,174.504 	"/>
	<polygon fill="#ECF0F9" points="200,182.004 215,167.004 201.502,165.503 186.502,180.503 	"/>
	<path fill="#ECF0F9" d="M192.5,189.504l-13.498-1.501l-13.503,13.499c-12,11.996-27,18.002-43.498,18.002
		c-8.251,0-15.751-1.501-23.251-4.504l-5.999,5.998l5.999,3.004c8.251,4.496,17.999,6.752,27.751,6.752
		c16.498,0,32.249-6.752,43.499-18.002L192.5,189.504z"/>
</g>
<path fill="#014463" d="M327.5,33.5C327.5,17.75,314.75,5,299,5c-7.5,0-15,3-20.25,8.25L62.67,230.75c0,0,24.67,7.31,44.16,11.61
	c3.54,0.779,10.247,3.223,22.5,2.64s37.55-8.88,51.17-22.5l84.75-84.75c3-3,3-7.5,0-10.5l-9.75-9.75l63.75-63.75
	C324.5,48.5,327.5,41.75,327.5,33.5z M170,212c-12,12-27,18-43.5,18c-9.75,0-18.75-2.25-27.75-6.75l-6-3L215,98l34.5,34.5L170,212z
	 M308.75,43.25L245,107l-19.5-19.5l63.75-63.75c2.25-2.25,6-3.75,9.75-3.75c7.5,0,13.5,6,13.5,13.5C312.5,37.25,311,41,308.75,43.25
	z"/>
</svg>
