<?xml version="1.0" encoding="utf-8"?>
<!-- Generator: Adobe Illustrator 16.0.0, SVG Export Plug-In . SVG Version: 6.00 Build 0)  -->
<!DOCTYPE svg PUBLIC "-//W3C//DTD SVG 1.1//EN" "http://www.w3.org/Graphics/SVG/1.1/DTD/svg11.dtd">
<svg version="1.1" id="Layer_1" xmlns="http://www.w3.org/2000/svg" xmlns:xlink="http://www.w3.org/1999/xlink" x="0px" y="0px"
	 width="271px" height="212px" viewBox="0 0 271 212" enable-background="new 0 0 271 212" xml:space="preserve">
<g id="parts_group">
	<path fill="#DE333F" d="M146,187.818H27.818v4.545c0,2.726,1.817,4.546,4.545,4.546h109.091c2.725,0,4.545-1.82,4.545-4.546
		V187.818z"/>
	<path fill="#ECEFF9" d="M173.272,115.091c1.363,0,2.272-0.452,3.183-1.362s1.363-1.82,1.363-3.184v-59.09
		c0-10.001-8.182-18.182-18.182-18.182h-16.362l0.905,9.091h10.911c7.729,0,13.637,5.908,13.637,13.636v54.545
		C168.728,113.271,170.547,115.091,173.272,115.091"/>
	<polygon fill="#F04D4E" points="39.637,33.272 28.273,178.728 145.547,178.728 134.184,33.272 	"/>
	<path fill="#FC9A90" d="M53.728,46.909c-2.728,0-4.545,1.817-5,4.09l-1.362,18.182c0,2.728,1.817,4.545,4.09,5h0.455
		c2.273,0,4.546-1.817,4.546-4.09l1.362-18.182C57.818,49.182,56.001,46.909,53.728,46.909"/>
	<path fill="#FC9A90" d="M51,81.455c-2.728,0-4.545,1.817-5,4.09l-0.908,10.909c0,2.272,1.818,4.545,4.09,5h0.455
		c2.272,0,4.545-1.818,4.545-4.09l0.908-10.909C55.091,84.183,53.273,81.91,51,81.455"/>
	<polygon fill="#BB333F" points="134.18,33.272 114.182,33.272 118.728,178.728 145.543,178.728 	"/>
	<path fill="#DE333F" d="M45.545,15.091c-2.272,0-4.545,1.818-4.545,4.091l-0.455,5h93.182l-0.453-5
		c0-2.273-2.272-4.091-4.545-4.091H45.545z"/>
	<path fill="#BB333F" d="M133.273,19.182c0-2.273-2.272-4.091-4.545-4.091h-19.092c2.272,0,4.545,1.818,4.545,4.091v5h19.092V19.182
		z"/>
	<path fill="#F04D4E" d="M21.455,44.636c3.183,2.273,5.455,5,7.728,8.181l1.363-19.545H14.182
		C14.637,37.818,17.364,41.909,21.455,44.636"/>
	<path fill="#60ADD8" d="M100.545,78.728c0-7.729-5.908-13.637-13.636-13.637c-7.729,0-13.637,5.908-13.637,13.637v54.545
		c0,7.729,5.908,13.637,13.637,13.637c7.728,0,13.636-5.908,13.636-13.637V78.728z"/>
	<path fill="#90CEF1" d="M77.818,137.818V83.272c0-7.728,5.908-13.636,13.636-13.636c2.728,0,4.999,0.91,7.271,1.818
		C96,67.818,91.91,65.091,86.909,65.091c-7.729,0-13.637,5.908-13.637,13.637v54.545c0,4.999,2.728,9.091,6.363,11.816
		C78.728,142.816,77.818,140.544,77.818,137.818"/>
	<path fill="#014463" d="M86.909,56c-12.727,0-22.728,10.001-22.728,22.728v54.545c0,12.727,10.001,22.728,22.728,22.728
		s22.728-10.001,22.728-22.728V78.728C109.637,66.001,99.636,56,86.909,56 M86.909,146.909c-7.729,0-13.637-5.908-13.637-13.637
		V78.728c0-7.729,5.908-13.637,13.637-13.637c7.728,0,13.636,5.908,13.636,13.637v4.545h-9.09c-2.728,0-4.545,1.818-4.545,4.546
		c0,2.728,1.817,4.545,4.545,4.545h9.09v9.091h-9.09c-2.728,0-4.545,1.818-4.545,4.545c0,2.726,1.817,4.545,4.545,4.545h9.09v9.092
		h-9.09c-2.728,0-4.545,1.819-4.545,4.545s1.817,4.546,4.545,4.546h9.09v4.545C100.545,141.001,94.637,146.909,86.909,146.909"/>
	<path fill="#BCD1E8" d="M173.272,115.091c1.363,0,2.272-0.452,3.183-1.362s1.363-1.82,1.363-3.184v-59.09
		c0-4.545-1.82-8.636-4.546-11.819V115.091z"/>
	<polygon fill="#BCD1E8" points="151.003,33.272 143.274,33.272 144.185,42.364 151.908,42.364 	"/>
	<path fill="#BB333F" d="M141.455,196.909h-22.728v-9.091H146v4.545C146,195.089,144.18,196.909,141.455,196.909"/>
</g>
<path fill="#014463" d="M259.46,112.64l-6.27,6.66l-5.24-4.939l6.26-6.66c3.37-3.58-2.17-8.8-5.54-5.22l-6.27,6.65l-4.54-4.27
	c0,0-7.681,11.081-4.13,20.09c-4.521,3.45-10.011,5.12-15.301,7.1c-5.51,2.061-10.479,4.771-15,8.561
	c-8.26,6.93-10.93,19.13-9.04,29.37c0.86,4.64,3.33,8.939,3.801,13.659c0.579,5.9-7.49,6.49-11.7,6.54
	c-5.91,0.08-12.061-1.59-17.34-4.17c-4.87-2.38-9.03-5.72-14.08-7.529L144.64,51.45h10.45c2.73,0,4.55,1.82,4.55,4.55v54.54
	c0,7.729,5.9,13.64,13.63,13.64c3.641,0,7.271-1.359,9.551-4.09c2.729-2.729,4.09-5.91,4.09-9.55V51.45
	c0-14.99-12.271-27.27-27.271-27.27H142.36l-0.45-5.45C141.46,11.46,135.55,6,128.27,6H45.54c-7.27,0-13.18,5.46-13.63,12.73
	l-0.46,5.45H9.64c-2.73,0-4.55,1.82-4.55,4.55v2.73c0,8.18,4.09,16.36,11.36,20.9c2.28,1.37,4.09,3.64,5.01,5.91l5.9,11.82
	L18.73,178.73v13.63c0,7.729,5.91,13.64,13.63,13.64h109.1c7.72,0,13.63-5.91,13.63-13.64v-3.04c4.32,2.14,8.26,5.21,12.74,7.02
	c5.95,2.41,12.25,3.66,18.66,3.84c11.42,0.33,23.5-6.05,21.41-18.96c-0.83-5.14-3.61-9.96-4.011-15.149
	c-0.46-5.88,0.78-11.851,4.65-16.431c4.229-5.02,10.8-7.33,16.77-9.5c5.57-2.02,10.771-4.33,15.381-8
	c9.8,4.48,22.779-3.159,22.779-3.159l-4.729-4.461l6.27-6.659C268.38,114.29,262.83,109.06,259.46,112.64z M159.64,33.27
	c10,0,18.181,8.18,18.181,18.18v59.09c0,1.37-0.45,2.28-1.36,3.19c-0.92,0.909-1.82,1.359-3.19,1.359c-2.72,0-4.539-1.82-4.539-4.55
	V56c0-7.73-5.91-13.64-13.641-13.64h-10.91l-0.91-9.09H159.64z M40.54,19.18c0-2.27,2.28-4.09,4.55-4.09h83.18
	c2.271,0,4.551,1.82,4.551,4.09l0.449,5H40.54V19.18z M39.64,33.27h94.54l11.37,145.46H28.27L39.64,33.27z M21.46,44.64
	c-4.1-2.73-6.82-6.82-7.28-11.37h16.37l-1.37,19.55C26.91,49.64,24.18,46.91,21.46,44.64z M146,192.36c0,2.729-1.82,4.55-4.54,4.55
	H32.36c-2.72,0-4.54-1.82-4.54-4.55v-4.54H146V192.36z"/>
</svg>
