<?xml version="1.0" encoding="utf-8"?>
<!-- Generator: Adobe Illustrator 16.0.0, SVG Export Plug-In . SVG Version: 6.00 Build 0)  -->
<!DOCTYPE svg PUBLIC "-//W3C//DTD SVG 1.1//EN" "http://www.w3.org/Graphics/SVG/1.1/DTD/svg11.dtd">
<svg version="1.1" id="fork_and_clever" xmlns="http://www.w3.org/2000/svg" xmlns:xlink="http://www.w3.org/1999/xlink" x="0px"
	 y="0px" width="166px" height="232px" viewBox="0 0 166 232" enable-background="new 0 0 166 232" xml:space="preserve">
<g>
	<defs>
		<rect id="SVGID_1_" x="-66" y="-34" width="300" height="300"/>
	</defs>
	<clipPath id="SVGID_2_">
		<use xlink:href="#SVGID_1_"  overflow="visible"/>
	</clipPath>
	<path clip-path="url(#SVGID_2_)" fill="#9CC4C2" d="M89,141v-5c0-8.501,6.499-15,15-15h45V16H79v125H89z"/>
	<path clip-path="url(#SVGID_2_)" fill="#D98B37" d="M74,206c0,5.498,4.5,10,10,10c5.498,0,10-4.502,10-10v-55H74V206z"/>
	<path clip-path="url(#SVGID_2_)" fill="#014463" d="M154,6H74c-3,0-5,2-5,5v130c-3,0-5,2.002-5,5v60c0,11.001,8.999,20,20,20
		s20-8.999,20-20v-60c0-2.998-2.002-5-5-5v-5c0-2.998,2.002-5,5-5h50c2.998,0,5-2.002,5-5V11C159,8,156.998,6,154,6 M94,206
		c0,5.498-4.502,10-10,10c-5.5,0-10-4.502-10-10v-55h20V206z M149,121h-45c-8.501,0-15,6.499-15,15v5H79V16h70V121z"/>
	<rect x="139" y="16" clip-path="url(#SVGID_2_)" fill="#D5E3EF" width="10" height="105"/>
	<path clip-path="url(#SVGID_2_)" fill="#C87729" d="M89,151v50c0,5.498-4.502,10-10,10h-3.501
		c2.002,3.501,6.501,6.001,11.001,4.502c4.502-1.001,7.5-5.503,7.5-10V151H89z"/>
	<path clip-path="url(#SVGID_2_)" fill="#D98B37" d="M29,137.997l-8.501,8.501c-0.999,1.001-1.499,2.5-1.499,3.501V206
		c0,5.498,4.5,10,10,10s10-4.502,10-10v-56.001c0-1.499-0.5-2.5-1.499-3.501L29,137.997z"/>
	<polygon clip-path="url(#SVGID_2_)" fill="#CEE3EF" points="149,46 79,76 79,16 149,16 	"/>
	<polygon clip-path="url(#SVGID_2_)" fill="#D5E3EF" points="149,66 79,96 79,86 149,56 	"/>
	<polygon clip-path="url(#SVGID_2_)" fill="#ECF0F9" points="139,70.5 149,66 149,56 139,60.5 	"/>
	<polygon clip-path="url(#SVGID_2_)" fill="#ECF0F9" points="139,50.5 149,46 149,16 139,16 	"/>
	<path clip-path="url(#SVGID_2_)" fill="#014463" d="M94,26c2.759,0,5,2.241,5,5s-2.241,5-5,5s-5-2.241-5-5S91.241,26,94,26"/>
	<path clip-path="url(#SVGID_2_)" fill="#C87729" d="M37.501,146.503L34,143.002V201c0,5.503-4.5,10-10,10h-3.499
		c2,3.501,6.499,6.001,10.999,4.502c4.502-1.001,7.5-5.503,7.5-10v-55.503C39,149.003,38.502,147.499,37.501,146.503"/>
	<path clip-path="url(#SVGID_2_)" fill="#B0C4D8" d="M20.001,63c1.001,3.999,2.5,7.5,4.5,11.001c2.5,2,6.501,2,9.001,0
		c2-3.501,3.499-7.002,4.5-11.001C33.001,66.999,25.001,66.999,20.001,63"/>
	<path clip-path="url(#SVGID_2_)" fill="#014463" d="M34,128.998V84.999C36.5,84,39,83,41,81L42,79.999l0.5-0.999
		C47,71.5,49,62.499,49,54c0-2,0-4.001-0.5-6.501l-4.5-37C43.5,8,41.5,6,38.5,6C36,6,34,8.5,34,11v40c0,3-2,5-5,5s-5-2-5-5V11
		c0-2.5-2-5-4.5-5c-3,0-5,2-5.5,4.5l-4.5,37C9,49.501,9,52.001,9,54C9,63,11.5,71.5,15.499,79l0.5,0.999C16,80.5,16.5,81,17,81
		c2,2,4.5,3.501,7,3.999v43.999l-10.5,10.503c-3,2.998-4.5,6.499-4.5,10.498V206c0,11.001,8.999,20,20,20s20-8.999,20-20v-56.001
		c0-3.999-1.499-7.998-4.5-10.498L34,128.998z M20.001,63c5,4.001,12.998,4.001,17.998,0C37,67.001,35.499,70.5,33.5,74
		C31,76,27,76,24.5,74C22.501,70.5,21,67.001,20.001,63 M39,206c0,5.498-4.5,10-10,10s-10-4.502-10-10v-56.001
		c0-1.499,0.5-2.5,1.499-3.501L29,138.002l8.501,8.496C38.5,147.499,39,148.5,39,149.999V206z"/>
</g>
</svg>
