<?xml version="1.0" encoding="utf-8"?>
<!-- Generator: Adobe Illustrator 16.0.0, SVG Export Plug-In . SVG Version: 6.00 Build 0)  -->
<!DOCTYPE svg PUBLIC "-//W3C//DTD SVG 1.1//EN" "http://www.w3.org/Graphics/SVG/1.1/DTD/svg11.dtd">
<svg version="1.1" id="soda_x5F_juice_x5F_water" xmlns="http://www.w3.org/2000/svg" xmlns:xlink="http://www.w3.org/1999/xlink"
	 x="0px" y="0px" width="222px" height="231px" viewBox="0 0 222 231" enable-background="new 0 0 222 231" xml:space="preserve">
<g>
	<defs>
		<rect id="SVGID_1_" x="-38" y="-35" width="300" height="300"/>
	</defs>
	<clipPath id="SVGID_2_">
		<use xlink:href="#SVGID_1_"  overflow="visible"/>
	</clipPath>
	<path clip-path="url(#SVGID_2_)" fill="#ECEFF9" d="M207,119.497c0-11.997-2.998-23.997-8.501-34.998l-15-29.5H149.5l-15,29.5
		c-5.498,11.001-8.501,23-8.501,34.998V210c0,2.998,2.002,5,5,5h70c3.003,0,5-2.002,5-5v-90.503H207z"/>
	<path clip-path="url(#SVGID_2_)" fill="#CAD5E3" d="M198.499,84.5l-15-29.5h-15l15,29.5c5.498,11.001,8.501,23,8.501,34.998V210
		c0,2.998-2.002,5-5,5h15c2.998,0,5-2.002,5-5v-90.503C207,107.5,203.997,95.5,198.499,84.5"/>
	<rect x="152" y="35" clip-path="url(#SVGID_2_)" fill="#B0C4D8" width="30" height="10"/>
	<path clip-path="url(#SVGID_2_)" fill="#B06328" d="M207,136.997C202,132.5,195.999,130,189.5,130
		c-7.002,0-13.999,2.998-18.999,8.501C163.499,146.001,154.002,150,144.5,150c-6.001,0-12.002-1.499-17.5-4.502V210
		c0,2.998,2.002,5,5,5h70c2.998,0,5-2.002,5-5V136.997z"/>
	<path clip-path="url(#SVGID_2_)" fill="#DA8C36" d="M122,135c12.5,13.501,32.5,13.501,45,0C154.5,121.499,134.5,121.499,122,135"/>
	<path clip-path="url(#SVGID_2_)" fill="#014463" d="M144.5,150c-10,0-18.999-3.999-26.001-11.499c-1.997-2.002-1.997-5,0-7.002
		c7.002-7.5,16.499-11.499,26.001-11.499c10,0,18.999,3.999,26.001,11.499c1.997,2.002,1.997,5,0,7.002
		C163.499,146.001,154.5,150,144.5,150 M129.5,135c8.999,6.499,21.001,6.499,30,0C150.501,128.501,138.499,128.501,129.5,135"/>
	<rect x="167" y="35" clip-path="url(#SVGID_2_)" fill="#99B5CD" width="15" height="10"/>
	<path clip-path="url(#SVGID_2_)" fill="#A35425" d="M192,130v70c0,5.498-4.502,10-10,10h-55c0,2.998,2.002,5,5,5h55h10h5
		c2.998,0,5-2.002,5-5v-72.998C203.001,132.998,197.498,131.001,192,130"/>
	<path clip-path="url(#SVGID_2_)" fill="#014463" d="M207.498,80L192,48.999V30c0-3-2.002-5-5-5h-40c-2.998,0-5,2-5,5v18.999
		L126.502,80C120.501,92,117,105.999,117,119.497V210c0,8.501,6.499,15,15,15h70c8.501,0,15-6.499,15-15v-90.503
		C217,105.999,214.002,92.5,207.498,80 M152,35h30v10h-30V35z M207,210c0,2.998-2.002,5-5,5h-70c-2.998,0-5-2.002-5-5v-64.502
		c5.498,3.003,11.499,4.502,17.5,4.502c10,0,18.999-3.999,26.001-11.499c5-5.503,11.997-8.501,18.999-8.501
		c6.499,0,12.5,2.5,17.5,6.997V210z M207,124.497c-5.498-2.998-11.499-4.497-17.5-4.497c-10,0-18.999,3.999-26.001,11.499
		c-5,5.498-11.997,8.501-18.999,8.501c-6.499,0-12.5-2.5-17.5-7.002V120c0-12,2.998-24.001,8.501-35l15-29.5H184.5l15,29.5
		c5.498,10.999,8.501,23,8.501,35v4.497H207z"/>
	<path clip-path="url(#SVGID_2_)" fill="#ECEFF9" d="M147,87.5c0-23-14.502-44.5-36.001-52.5H53.001C31.5,43.501,17,64.5,17,87.5
		V200c0,8.501,6.499,15,15,15h100c8.501,0,15-6.499,15-15V87.5z"/>
	<path clip-path="url(#SVGID_2_)" fill="#FFFFFF" d="M61.5,44.5C60,42,57,40.999,55,42.5C44.5,48,35.999,57,30.999,68.499
		c-0.999,2.5,0,5.5,2.5,6.501h2C37.5,75,39.5,73.999,40,72C43.499,63,50.499,55.5,59,50.999C61.5,50,62.5,47,61.5,44.5"/>
	<path clip-path="url(#SVGID_2_)" fill="#CAD5E3" d="M110.999,35h-25C107.498,43.501,122,64.5,122,87.5V200c0,8.501-6.499,15-15,15
		h25c8.501,0,15-6.499,15-15V87.5C147,64.5,132.498,43.501,110.999,35"/>
	<rect x="57" y="15" clip-path="url(#SVGID_2_)" fill="#F04D4E" width="50" height="10"/>
	<path clip-path="url(#SVGID_2_)" fill="#F6B545" d="M147,108.501c-21.001,10-48.999,8.501-68-4.5C62,92.5,35,92.002,17,102.5V200
		c0,8.501,6.499,15,15,15h100c8.501,0,15-6.499,15-15V108.501z"/>
	<path clip-path="url(#SVGID_2_)" fill="#FFCB5B" d="M152,100c-19.502,13.501-50.5,13.501-70,0C101.5,86.499,132.498,86.499,152,100
		"/>
	<path clip-path="url(#SVGID_2_)" fill="#014463" d="M117,115c-13.501,0-27-3.501-38-11.001c-0.999-0.999-2-2.5-2-3.999
		s1.001-3,2-3.999c21.001-14.502,54.5-14.502,75.5,0c1.499,0.999,2.002,2.5,2.002,3.999s-1.001,3-2.002,3.999
		C144.002,111.499,130.501,115,117,115 M92,100c15,6.499,34.502,6.499,49.502,0C127,93.501,107,93.501,92,100"/>
	<path clip-path="url(#SVGID_2_)" fill="#A7B0C4" d="M126.497,80c-0.996,1.499-1.499,3.501-2.5,5
		c3.501,0.5,7.002,1.001,10.503,1.499c0.498-0.999,0.498-1.499,1.001-2.5l7.998-16.499c-1.499-3.999-3.501-7.5-5.498-11.001
		L126.497,80z"/>
	<rect x="87" y="15" clip-path="url(#SVGID_2_)" fill="#DE333F" width="20" height="10"/>
	<path clip-path="url(#SVGID_2_)" fill="#F19A22" d="M122,115v75c0,8.501-6.499,15-15,15H18.001c2,6.001,7.5,10,13.999,10h75h20h5
		c8.501,0,15-6.499,15-15v-91.499C139.5,112,130.999,114.5,122,115"/>
	<path clip-path="url(#SVGID_2_)" fill="#014463" d="M117,26.499V10c0-3-2.002-5-5-5H52c-3,0-5,2-5,5v16.499
		C23.001,37,7,60.999,7,87.5V200c0,13.999,11.001,25,25,25h100c13.999,0,25-11.001,25-25V87.5C157,61.499,140.999,37,117,26.499
		 M57,15h50v10H57V15z M147,200c0,8.501-6.499,15-15,15H32c-8.501,0-15-6.499-15-15v-97.5c18-11.001,45-10.5,62,1.499
		c19.001,12.998,47,14.502,68,4.5V200z M147,97C129.002,108,102,107.5,85,95.5c-19.001-13-47-14.502-68-4.502V87.5
		c0-23,14.5-44.001,36.001-52.5h57.998C132.498,43.499,147,64.5,147,87.5V97z"/>
	<path clip-path="url(#SVGID_2_)" fill="#FFCB5B" d="M32,160L32,160c-3,0-5-2.002-5-5v-20c0-2.998,2-5,5-5s5,2.002,5,5v20
		C37,157.998,35,160,32,160"/>
	<path clip-path="url(#SVGID_2_)" fill="#ECEFF9" d="M187,165c0-8.501-2.998-17.002-7.998-23.999
		c-3.501-4.502-6.001-10-6.504-16.001H142c-1.001,6.001-2.998,11.499-6.499,16.001c-5,6.997-8.003,15.498-8.003,23.999v45
		c0,2.998,2.002,5,5,5h50c3.003,0,5-2.002,5-5v-45H187z"/>
	<path clip-path="url(#SVGID_2_)" fill="#CAD5E3" d="M178.997,141.001c-3.496-4.502-5.996-10-6.499-16.001h-10
		c1.001,6.001,3.003,11.499,6.499,16.001c5,7.002,8.003,15.498,8.003,23.999v45c0,3.003-2.002,5-5,5h10c2.998,0,5-1.997,5-5v-45
		C187,156.499,183.997,148.003,178.997,141.001"/>
	<rect x="142" y="105" clip-path="url(#SVGID_2_)" fill="#F04D4E" width="30" height="10"/>
	<path clip-path="url(#SVGID_2_)" fill="#70B7E5" d="M127,173.003V210c0,3.003,2.002,5,5,5h50c2.998,0,5-1.997,5-5v-41.997
		c-7.998-4.004-20-3.501-27.002,1.499C150.999,175.503,137.498,176.499,127,173.003"/>
	<path clip-path="url(#SVGID_2_)" fill="#4C9CD6" d="M177,165v35c0,5.498-4.502,10-10,10h-40c0,2.998,2.002,5,5,5h40h5h5
		c2.998,0,5-2.002,5-5v-42.002C184.002,166.499,180.501,165.498,177,165"/>
	<rect x="147" y="125" clip-path="url(#SVGID_2_)" fill="#A7B0C4" width="10" height="35"/>
	<rect x="162" y="105" clip-path="url(#SVGID_2_)" fill="#DE333F" width="10" height="10"/>
	<path clip-path="url(#SVGID_2_)" fill="#90CEF1" d="M134.5,200L134.5,200c-1.499,0-2.5-1.001-2.5-2.5v-15
		c0-1.499,1.001-2.5,2.5-2.5s2.5,1.001,2.5,2.5v15C137,198.999,135.999,200,134.5,200"/>
	<path clip-path="url(#SVGID_2_)" fill="#014463" d="M187,135c-2.998-4.502-5-9.502-5-15v-20c0-3-2.002-5-5-5h-40c-2.998,0-5,2-5,5
		v20c0,5.498-2.002,10.498-5,15c-6.499,8.501-10,19.502-10,30v45c0,8.501,6.499,15,15,15h50c8.501,0,15-6.499,15-15v-45
		C197,154.502,193.499,143.501,187,135 M142,105h30v10h-30V105z M134.998,141.001c3.501-4.502,6.001-10,6.504-16.001H172
		c1.001,6.001,2.998,11.499,6.499,16.001c3.501,4.497,6.001,10,7.002,16.001c-9.502-3.003-20.503-2.002-28.999,2.5
		c-8.501-4.502-19.502-5.503-29.004-2.5C129.002,151.001,131.502,145.498,134.998,141.001 M187,210c0,2.998-2.002,5-5,5h-50
		c-2.998,0-5-2.002-5-5v-37.002c10.498,3.501,23.501,2.5,32.5-3.496c0,0,0.498,0,0.498-0.503c7.5-5,19.004-5.498,27.002-1.499V210z"
		/>
	<path clip-path="url(#SVGID_2_)" fill="#FFCB5B" d="M32,115c2.759,0,5,2.241,5,5s-2.241,5-5,5s-5-2.241-5-5S29.241,115,32,115"/>
</g>
</svg>
